<svg xmlns="http://www.w3.org/2000/svg" viewBox="0 0 18.43 14.5"><defs><style>.cls-1{fill:#1f1646;}.cls-1,.cls-2{stroke:#1f1646;stroke-miterlimit:10;stroke-width:0.25px;}.cls-2{fill:#fff;}</style></defs><g id="Layer_2" data-name="Layer 2"><g id="Conta_Desplegada" data-name="Conta Desplegada"><path class="cls-1" d="M18.06,14.38H.37a.25.25,0,0,1-.25-.25V2.34a.25.25,0,0,1,.25-.25H18.06a.25.25,0,0,1,.25.25V14.13A.25.25,0,0,1,18.06,14.38ZM.62,13.88H17.81V2.58H.62Z"/><path class="cls-2" d="M16.09,12.16a11.22,11.22,0,0,0-4.42.5,7.33,7.33,0,0,0-2.45,1.47V2.34A12.94,12.94,0,0,1,12.66.86,17.39,17.39,0,0,1,16.09.37Z"/><path class="cls-1" d="M9.22,14.38l-.12,0A.25.25,0,0,1,9,14.13V2.34a.24.24,0,0,1,.13-.22l.55-.3A11.54,11.54,0,0,1,12.6.62,17.79,17.79,0,0,1,16.08.13a.21.21,0,0,1,.18.06.25.25,0,0,1,.08.18V12.16a.27.27,0,0,1-.08.19.26.26,0,0,1-.19.06,10.87,10.87,0,0,0-4.32.48A5.49,5.49,0,0,0,9.84,14l-.48.37A.3.3,0,0,1,9.22,14.38ZM9.46,2.49V13.64l.08-.06a5.91,5.91,0,0,1,2.06-1.16,11.3,11.3,0,0,1,4.25-.52V.63a17.51,17.51,0,0,0-3.14.47A10.42,10.42,0,0,0,9.89,2.26Z"/><path class="cls-2" d="M2.22,12.16a11.21,11.21,0,0,1,4.42.5,8.16,8.16,0,0,1,2.58,1.47V2.34A14.28,14.28,0,0,0,5.66.86,17.38,17.38,0,0,0,2.22.37Z"/><path class="cls-1" d="M9.22,14.38a.3.3,0,0,1-.15-.05l-.38-.28a6.58,6.58,0,0,0-2.12-1.16,10.92,10.92,0,0,0-4.33-.48.25.25,0,0,1-.18-.06A.24.24,0,0,1,2,12.16V.37A.24.24,0,0,1,2.05.19.25.25,0,0,1,2.23.13,17.79,17.79,0,0,1,5.72.62,13.3,13.3,0,0,1,9,1.92l.38.2a.24.24,0,0,1,.13.22V14.13a.25.25,0,0,1-.13.22Zm-6-2.51a11.41,11.41,0,0,1,3.48.55A7,7,0,0,1,9,13.65V2.49l-.25-.13A12.49,12.49,0,0,0,5.6,1.1,17.4,17.4,0,0,0,2.47.63V11.9C2.73,11.88,3,11.87,3.24,11.87Z"/></g></g></svg>