<svg xmlns="http://www.w3.org/2000/svg" viewBox="0 0 19 19"><defs><style>.cls-1{fill:#1f1646;}</style></defs><g id="Layer_2" data-name="Layer 2"><g id="Conta_Desplegada" data-name="Conta Desplegada"><path class="cls-1" d="M16.55,1.48H14.84V.59a.59.59,0,0,0-1.18,0v.89H5.34V.59a.59.59,0,0,0-1.18,0v.89H2.45A2.45,2.45,0,0,0,0,3.93V16.55A2.45,2.45,0,0,0,2.45,19h14.1A2.45,2.45,0,0,0,19,16.55V3.93a2.45,2.45,0,0,0-2.45-2.45ZM2.45,2.67H4.16v.6a.59.59,0,0,0,1.18,0v-.6h8.32v.6a.59.59,0,0,0,1.18,0v-.6h1.71a1.26,1.26,0,0,1,1.26,1.26V5.34H1.19V3.93A1.26,1.26,0,0,1,2.45,2.67Zm14.1,15.14H2.45a1.25,1.25,0,0,1-1.26-1.26v-10H17.81v10a1.25,1.25,0,0,1-1.26,1.26Z"/></g></g></svg>