<svg xmlns="http://www.w3.org/2000/svg" viewBox="0 0 17.03 19.61"><defs><style>.cls-1{fill:#1f1646;stroke:#1f1646;stroke-miterlimit:10;stroke-width:0.25px;}</style></defs><g id="Layer_2" data-name="Layer 2"><g id="Conta_Desplegada" data-name="Conta Desplegada"><path class="cls-1" d="M14.72,5.47l1.09-1.1a.43.43,0,0,0,0-.63.44.44,0,0,0-.62,0l-1.1,1.1A8.34,8.34,0,0,0,9,2.73V1.05l1.32,0h0a.45.45,0,0,0,.45-.44.44.44,0,0,0-.44-.45L6.72.13a.44.44,0,0,0-.45.43A.43.43,0,0,0,6.7,1L8.07,1v1.7a8.41,8.41,0,1,0,6.65,2.74ZM8.52,18.85a7.75,7.75,0,0,1-.07-15.5h.13a7.75,7.75,0,0,1-.06,15.5Z"/><path class="cls-1" d="M11.53,7.41,8,11a.43.43,0,0,0,0,.63.43.43,0,0,0,.62,0L12.16,8a.45.45,0,0,0-.63-.63Z"/></g></g></svg>