<svg xmlns="http://www.w3.org/2000/svg" viewBox="0 0 15.73 21.16"><defs><style>.cls-1{fill:#1f1646;stroke:#1f1646;stroke-miterlimit:10;stroke-width:0.25px;}</style></defs><g id="Layer_2" data-name="Layer 2"><g id="Conta_Desplegada" data-name="Conta Desplegada"><path class="cls-1" d="M7.94,21l-.19-.21A47.25,47.25,0,0,1,1,11.27a7.87,7.87,0,0,1-.86-3A7.88,7.88,0,0,1,1.66,3.22a8,8,0,0,1,5.23-3A7.88,7.88,0,0,1,12.22,1.4a7.9,7.9,0,0,1,3.33,5.25,8.62,8.62,0,0,1-.65,4.14l0,.08a12.63,12.63,0,0,1-1,2.08,60.06,60.06,0,0,1-5.78,7.81ZM7.93.62A8.37,8.37,0,0,0,7,.68,7.48,7.48,0,0,0,2.05,3.52,7.43,7.43,0,0,0,.63,8.26a7.25,7.25,0,0,0,.82,2.8,46.81,46.81,0,0,0,6.48,9.16,58.38,58.38,0,0,0,5.54-7.51,12.81,12.81,0,0,0,.94-2l0-.09a8.28,8.28,0,0,0,.62-3.91,7.36,7.36,0,0,0-3.12-4.9A7.2,7.2,0,0,0,7.93.62Z"/><path class="cls-1" d="M7.87,11.41a3.64,3.64,0,1,1,3.64-3.64A3.64,3.64,0,0,1,7.87,11.41Zm0-6.79A3.15,3.15,0,1,0,11,7.77,3.15,3.15,0,0,0,7.87,4.62Z"/></g></g></svg>