<svg xmlns="http://www.w3.org/2000/svg" viewBox="0 0 29.17 35"><defs><style>.cls-1{fill:#fff;}</style></defs><g id="Layer_2" data-name="Layer 2"><g id="Layer_1-2" data-name="Layer 1"><path class="cls-1" d="M16.77,6.1A.73.73,0,0,1,16,5.37V2.92a1.46,1.46,0,1,0-2.92,0V5.37a.73.73,0,1,1-1.45,0V2.92a2.92,2.92,0,1,1,5.83,0V5.37a.73.73,0,0,1-.73.73Z"/><path class="cls-1" d="M14.58,35a5.11,5.11,0,0,1-5.1-5.1.73.73,0,0,1,1.46,0,3.65,3.65,0,0,0,7.29,0,.73.73,0,1,1,1.46,0A5.11,5.11,0,0,1,14.58,35Z"/><path class="cls-1" d="M27,30.62H2.19A2.19,2.19,0,0,1,0,28.44a2.16,2.16,0,0,1,.77-1.66A10.18,10.18,0,0,0,4.37,19V14.58a10.21,10.21,0,0,1,20.42,0V19a10.1,10.1,0,0,0,3.6,7.75,2.21,2.21,0,0,1,.78,1.68A2.19,2.19,0,0,1,27,30.62ZM14.58,5.83a8.77,8.77,0,0,0-8.75,8.75V19a11.6,11.6,0,0,1-4.11,8.87.71.71,0,0,0-.26.56.73.73,0,0,0,.73.73H27a.73.73,0,0,0,.73-.73.71.71,0,0,0-.26-.56A11.57,11.57,0,0,1,23.33,19V14.58a8.76,8.76,0,0,0-8.75-8.75Z"/></g></g></svg>