<svg xmlns="http://www.w3.org/2000/svg" viewBox="0 0 17.96 17.96"><defs><style>.cls-1{fill:#1f1646;}</style></defs><g id="Layer_2" data-name="Layer 2"><g id="Conta_Desplegada" data-name="Conta Desplegada"><path class="cls-1" d="M9,18a9,9,0,1,1,9-9A9,9,0,0,1,9,18ZM9,.68A8.3,8.3,0,1,0,17.28,9,8.31,8.31,0,0,0,9,.68Z"/><path class="cls-1" d="M9.36,12v1.14H8.71V12a4.08,4.08,0,0,1-2.46-.88l.38-.79a3.47,3.47,0,0,0,2.08.81V8.81c-1.11-.27-2.29-.62-2.29-2,0-1,.72-1.87,2.29-2V3.66h.65V4.8a4,4,0,0,1,2.05.62l-.33.81a3.62,3.62,0,0,0-1.72-.57V8c1.13.28,2.34.61,2.34,2C11.7,11,11,11.89,9.36,12ZM8.71,7.85V5.67c-.9.11-1.29.57-1.29,1.1S8,7.66,8.71,7.85Zm2,2.23c0-.65-.6-.9-1.35-1.1v2.17C10.3,11.06,10.71,10.63,10.71,10.08Z"/></g></g></svg>