<svg xmlns="http://www.w3.org/2000/svg" viewBox="0 0 41.61 37.15"><defs><style>.cls-1{fill:#1f1646;stroke:#1f1646;stroke-miterlimit:10;stroke-width:0.75px;}</style></defs><g id="Layer_2" data-name="Layer 2"><g id="Conta_Desplegada" data-name="Conta Desplegada"><path class="cls-1" d="M39.63,16.15H36.22V12.22a2.38,2.38,0,0,0-2.37-2.37H28.41V6.67H21V5.12a2.32,2.32,0,1,0-.31,0V6.67H13V9.85H7.68a2.38,2.38,0,0,0-2.37,2.37v3.85H2a1.61,1.61,0,0,0-1.6,1.61V28.32A1.61,1.61,0,0,0,2,29.93H5.31v4.48a2.38,2.38,0,0,0,2.37,2.37H33.85a2.38,2.38,0,0,0,2.37-2.37V30h3.41a1.62,1.62,0,0,0,1.61-1.61V17.76A1.62,1.62,0,0,0,39.63,16.15Zm-21-13.39a2.07,2.07,0,1,1,2.07,2.08A2.07,2.07,0,0,1,18.62,2.76ZM13.28,7H28.09V9.85H13.28ZM2,29.61A1.29,1.29,0,0,1,.69,28.32V17.68A1.29,1.29,0,0,1,2,16.39H5.31V29.61Zm33.92,4.8a2.05,2.05,0,0,1-2,2.05H7.68a2.05,2.05,0,0,1-2-2.05V12.22a2.05,2.05,0,0,1,2.05-2.05H33.85a2.05,2.05,0,0,1,2,2.05Zm5-6a1.29,1.29,0,0,1-1.29,1.29H36.3V16.46h3.33a1.3,1.3,0,0,1,1.29,1.3Z"/><path class="cls-1" d="M15,19.09a2.39,2.39,0,1,0-2.39,2.39A2.4,2.4,0,0,0,15,19.09Zm-4.46,0a2.07,2.07,0,1,1,2.07,2.07A2.07,2.07,0,0,1,10.57,19.09Z"/><path class="cls-1" d="M28.73,16.7a2.39,2.39,0,1,0,2.39,2.39A2.4,2.4,0,0,0,28.73,16.7Zm0,4.46a2.07,2.07,0,1,1,2.07-2.07A2.07,2.07,0,0,1,28.73,21.16Z"/><path class="cls-1" d="M28.63,24.11H12.57v.15c0,.51-.18,5,3.41,7.63a8.43,8.43,0,0,0,4.92,1.55c.25,0,.5,0,.74,0a7.81,7.81,0,0,0,5.23-2.5,8.43,8.43,0,0,0,1.79-6.66Zm-2,6.59a8.14,8.14,0,0,1-10.46.93c-3.21-2.31-3.3-6.36-3.29-7.2H28.35A8.05,8.05,0,0,1,26.62,30.7Z"/></g></g></svg>