<svg xmlns="http://www.w3.org/2000/svg" viewBox="0 0 511.98 512"><defs><style>.cls-1{fill:#100935;}</style></defs><g id="Layer_2" data-name="Layer 2"><g id="Layer_1-2" data-name="Layer 1"><path class="cls-1" d="M361,392v40a80.09,80.09,0,0,1-80,80H80A80.09,80.09,0,0,1,0,432V80A80.09,80.09,0,0,1,80,0H281a80.09,80.09,0,0,1,80,80v40a20,20,0,0,1-40,0V80a40.05,40.05,0,0,0-40-40H80A40.05,40.05,0,0,0,40,80V432a40.05,40.05,0,0,0,40,40H281a40.05,40.05,0,0,0,40-40V392a20,20,0,0,1,40,0ZM497.36,221.64l-44.79-44.78a20,20,0,0,0-28.28,28.28L456.14,237H216a20,20,0,0,0,0,40H456.14l-31.85,31.86a20,20,0,1,0,28.28,28.28l44.79-44.78A50.08,50.08,0,0,0,497.36,221.64Z"/></g></g></svg>