<svg xmlns="http://www.w3.org/2000/svg" xmlns:xlink="http://www.w3.org/1999/xlink" viewBox="0 0 1920 1080">
  <defs>
    <clipPath id="clip-path">
      <rect y="-108.9" width="1200.41" height="1188.9" transform="translate(1200.41 971.09) rotate(-180)" fill="none"/>
    </clipPath>
    <linearGradient id="linear-gradient" x1="-3294.97" y1="573.19" x2="-2908.36" y2="573.19" gradientTransform="matrix(-1, 0, 0, 1, -3220.09, 0)" gradientUnits="userSpaceOnUse">
      <stop offset="0" stop-color="#69488e"/>
      <stop offset="1" stop-color="#8d99ce"/>
    </linearGradient>
    <linearGradient id="linear-gradient-2" x1="-3827" y1="807.45" x2="-2920.69" y2="807.45" gradientTransform="matrix(-1, 0, 0, 1, -3220.09, 0)" gradientUnits="userSpaceOnUse">
      <stop offset="0" stop-color="#f5333f"/>
      <stop offset="1" stop-color="#657abd"/>
    </linearGradient>
    <linearGradient id="linear-gradient-3" x1="-1675.36" y1="-1976.98" x2="-1478.62" y2="-2384.49" gradientTransform="matrix(0.11, 0.99, -0.99, 0.11, -1103.16, 2339.91)" gradientUnits="userSpaceOnUse">
      <stop offset="0" stop-color="#f5333f"/>
      <stop offset="0.14" stop-color="#f53944"/>
      <stop offset="0.33" stop-color="#f74a52"/>
      <stop offset="0.54" stop-color="#f9666a"/>
      <stop offset="0.78" stop-color="#fc8d8a"/>
      <stop offset="0.99" stop-color="#ffb7ad"/>
    </linearGradient>
  </defs>
  <title>loArtboard 1 copy 2</title>
  <g id="Estudiantes_2" data-name="Estudiantes 2">
    <rect y="1" width="1919.92" height="1079" fill="#1f1646"/>
    <g clip-path="url(#clip-path)">
      <path d="M74.57,723.35c.36-3,3-29.14-16.73-47.83-14.23-13.5-31.31-14.78-36.08-15,.24-1.76,2.3-18.88-10-30.44-11.09-10.37-29.08-11.86-43.63-2.93a34.28,34.28,0,0,0-37.28-28,34.3,34.3,0,0,0-30.24,36.21c-8.8-18.72-26.46-31.24-46-32.34-21.42-1.21-36.16,11.76-39.13,14.48.5-2,5.24-22.56-9-39.17-12.1-14.1-28.93-14.92-31.73-15,1.29-1.15,11.82-10.94,10.7-26.25-1-13.69-10.58-21.53-12.17-22.79A28.59,28.59,0,0,0-214,488a28.77,28.77,0,0,0-22-24.9c.82-1.89,10.35-25.05-3.63-46.84-12.73-19.83-34.53-22.33-37.24-22.6l-34.9-1.9,12.67,362.87Z" fill="url(#linear-gradient)"/>
      <path d="M537,941a59.49,59.49,0,0,0-.39-33.27,60.3,60.3,0,0,0-24.47-32.2c10.86-8.67,14.93-22.91,10.3-34.78-5.53-14.21-20.67-17.77-21.9-18,.57-.66,5.83-7,3.87-15.46a18.13,18.13,0,0,0-9-11.59c11.59-5,18.25-15.79,16.75-25.76-1.19-7.92-7.13-12.76-9-14.17,7.11-4.86,9.63-13.76,6.44-20.61-2.44-5.25-8-8.7-14.17-9a24.36,24.36,0,0,0,5.15-16.75,23.87,23.87,0,0,0-5.15-12.88,11.33,11.33,0,0,0,9-3.86A11,11,0,0,0,505.7,681a13.74,13.74,0,0,0,10.3-2.57c.59-.45,5.24-4.16,5.16-10.31a13.21,13.21,0,0,0-7.73-11.59,13.35,13.35,0,0,0-9,0,13.66,13.66,0,0,0-7.73,7.73c-6.49-4.06-14.8-2.78-19.32,2.57a14.84,14.84,0,0,0-1.29,16.75,23.32,23.32,0,0,0,1.29,45.09,31.28,31.28,0,0,0-3.87,10.3,32.67,32.67,0,0,0,2.58,19.32c-5.63-3.87-12.59-3.68-16.75,0-3.6,3.2-3.84,7.92-3.86,9,.23-4.57-.27-10.07-3.87-12.88-5-4-14.12-1-14.17-1.29s15.74.15,20.62-7.73c3.67-5.93,1.85-17.79-6.45-21.9-7.2-3.56-14.84.92-15.45,1.29a24.6,24.6,0,0,0-36.07,25.77A23.23,23.23,0,0,0,364,775.05c-2-1.13-15.95-8.57-32.2-2.58-14.91,5.5-20.87,18.28-21.9,20.61,3.79-18.38-3.32-37.13-18-47.66-19.62-14-42.09-5.81-43.8-5.15,18.55-23.35,13.18-56.3-7.72-70.85-17.28-12-43-10-60.55,6.44a27.65,27.65,0,0,0-46.37,21.9c-6.5-10.17-18.72-14.84-29.63-11.59a26.29,26.29,0,0,0-18,20.61,34.63,34.63,0,0,0-64.41,0c.55-9-5-17-12.88-19.32a18.35,18.35,0,0,0-18,5.15A63.38,63.38,0,0,0-65,626.91c-32.85-3.95-63.64,18.76-69.56,51.53-1.47-2.29-16.92-25.53-46.37-27.05-28.25-1.46-45.69,18.28-47.67,20.61.51-2.44,4.95-25.81-11.59-43.8-12.3-13.39-28.26-15.14-32.2-15.46,12.92-3.55,21.5-15.6,20.61-28.34a27.68,27.68,0,0,0-20.61-24.47c.93-.75,13.28-11.06,11.59-27-1.29-12.24-9.89-19.28-11.59-20.62a18.87,18.87,0,0,0-14-5.32,18.79,18.79,0,0,0-13.08,6.61Q-294.21,810.78-289,1108l892-4c8.35-22.6,3-46.94-13-61-14.94-13.12-33.53-12.31-38-12,9.54-4.45,16.18-13.2,17-23,1.09-13.1-8.37-26.19-23-30,8.46-5.14,12.11-15.33,9-24A20.21,20.21,0,0,0,537,941Z" fill="url(#linear-gradient-2)"/>
    </g>
    <g>
      <path d="M892.7,629.9a3.61,3.61,0,0,0,.78-3.77l-31.81-84.06,210.79-151.61a3.54,3.54,0,0,0,1.41-2.15l30-139.11a3.61,3.61,0,0,0-.53-2.74,3.48,3.48,0,0,0-2.4-1.54L955.67,221.3a3.6,3.6,0,0,0-2.66.62L742.38,372.16,676.62,320.1a3.57,3.57,0,0,0-3.74-.44L425,435.48a3.6,3.6,0,0,0-1.92,4.28,4,4,0,0,0,.51,1,3.6,3.6,0,0,0,3.46,1.47l174.91-26.38,27.94,39.36-53.45,37a3.58,3.58,0,0,0-.88,5l41.13,57.93a72.43,72.43,0,0,0-31,13.22c-31.42,23.47-29.11,63.43-29,65.12a3.44,3.44,0,0,0,.64,1.78h0a2.88,2.88,0,0,0,.27.34,3.78,3.78,0,0,0,1.16.85,3.16,3.16,0,0,0,.61.22c4.23,1.69,38.89,14.47,69.73-6.32a74.53,74.53,0,0,0,23.07-25.29L691.9,661.2a3.58,3.58,0,0,0,5,.84l53-37.62,27.84,40.47L696.89,821.08a3.61,3.61,0,0,0,.54,4.07,3.26,3.26,0,0,0,.55.49,3.6,3.6,0,0,0,4.66-.41ZM451.2,431.13l10.59-1.36-11.37,1.72Z" fill="url(#linear-gradient-3)"/>
      <circle cx="940.09" cy="358.86" r="48.59" fill="#1f1646"/>
      <g>
        <rect x="792.58" y="434.22" width="16.14" height="53.36" transform="translate(704.09 -457.88) rotate(54.07)" fill="#1f1646"/>
        <rect x="754.99" y="479.5" width="16.14" height="16.92" transform="translate(710.46 -416.26) rotate(54.07)" fill="#1f1646"/>
      </g>
    </g>
    <rect x="-0.03" y="1.91" width="1920.03" height="1076.9" fill="#606060" opacity="0.12"/>
  </g>
</svg>
