<svg xmlns="http://www.w3.org/2000/svg" xmlns:xlink="http://www.w3.org/1999/xlink" viewBox="0 0 1920 1080">
  <defs>
    <clipPath id="clip-path">
      <rect y="-10" width="1920" height="1089" fill="none"/>
    </clipPath>
    <linearGradient id="linear-gradient" x1="-7629.47" y1="282.69" x2="-7242.86" y2="282.69" gradientTransform="matrix(-1, 0, 0, 1, -7264.09, 0)" gradientUnits="userSpaceOnUse">
      <stop offset="0" stop-color="#69488e"/>
      <stop offset="1" stop-color="#8d99ce"/>
    </linearGradient>
    <linearGradient id="linear-gradient-2" x1="-8171.49" y1="736.4" x2="-7425.85" y2="1280.05" gradientTransform="matrix(-1, 0, 0, 1, -7264.09, 0)" gradientUnits="userSpaceOnUse">
      <stop offset="0" stop-color="#f5333f"/>
      <stop offset="0.36" stop-color="#c04d6d"/>
      <stop offset="1" stop-color="#657abd"/>
    </linearGradient>
  </defs>
  <title>loArtboard 1 copy 5</title>
  <g id="Profesionales_3" data-name="Profesionales 3">
    <rect y="1" width="1919.92" height="1079" fill="#1f1646"/>
    <g clip-path="url(#clip-path)">
      <path d="M365.07,432.85c.36-3,3-29.14-16.73-47.83-14.23-13.5-31.31-14.78-36.08-15,.24-1.76,2.3-18.88-10.05-30.44-11.09-10.37-29.08-11.86-43.63-2.93a34.05,34.05,0,0,0-67.52,8.17c-8.8-18.72-26.46-31.24-46-32.34-21.42-1.21-36.16,11.76-39.13,14.48.5-2,5.24-22.56-9-39.17-12.1-14.1-28.93-14.92-31.73-15,1.29-1.15,11.82-10.94,10.7-26.25-1-13.69-10.58-21.53-12.17-22.79a28.11,28.11,0,0,0-9.13-51.16c.82-1.89,10.35-25-3.63-46.84-12.73-19.83-34.53-22.33-37.24-22.6l-34.9-1.9L-8.56,464.13Z" fill="url(#linear-gradient)"/>
      <path d="M827.5,650.5a59.49,59.49,0,0,0-.39-33.27A60.3,60.3,0,0,0,802.64,585c10.86-8.67,14.93-22.91,10.3-34.78-5.53-14.21-20.67-17.77-21.9-18,.57-.66,5.83-7,3.87-15.46a18.13,18.13,0,0,0-9-11.59c11.59-5,18.25-15.79,16.75-25.76-1.19-7.92-7.13-12.76-9-14.17,7.11-4.86,9.63-13.76,6.44-20.61-2.44-5.25-8-8.7-14.17-9A24.36,24.36,0,0,0,791,418.85,23.87,23.87,0,0,0,785.89,406a11.33,11.33,0,0,0,9-3.86,11,11,0,0,0,1.29-11.6,13.74,13.74,0,0,0,10.3-2.57c.59-.45,5.24-4.16,5.16-10.31A13.21,13.21,0,0,0,803.93,366a13.35,13.35,0,0,0-9,0,13.66,13.66,0,0,0-7.73,7.73c-6.49-4.06-14.8-2.78-19.32,2.57a14.84,14.84,0,0,0-1.29,16.75,23.32,23.32,0,0,0,1.29,45.09,31.28,31.28,0,0,0-3.87,10.3,32.67,32.67,0,0,0,2.58,19.32c-5.63-3.87-12.59-3.68-16.75,0-3.6,3.2-3.84,7.92-3.86,9,.23-4.57-.27-10.07-3.87-12.88-5.05-4-14.12-1-14.17-1.29s15.74.15,20.62-7.73c3.67-5.93,1.85-17.79-6.45-21.9-7.2-3.56-14.84.92-15.45,1.29a24.6,24.6,0,0,0-36.07,25.77,23.23,23.23,0,0,0-36.07,24.47c-2-1.13-16-8.57-32.2-2.58-14.91,5.5-20.87,18.28-21.9,20.61,3.79-18.38-3.32-37.13-18-47.66-19.62-14-42.09-5.81-43.8-5.15,18.55-23.35,13.18-56.3-7.72-70.85-17.28-12-43-10-60.55,6.44a27.65,27.65,0,0,0-46.37,21.9c-6.5-10.17-18.72-14.84-29.63-11.59a26.29,26.29,0,0,0-18,20.61,34.63,34.63,0,0,0-64.41,0c.55-9-5-17-12.88-19.32a18.35,18.35,0,0,0-18,5.15,63.38,63.38,0,0,0-55.39-65.7c-32.85-4-63.64,18.76-69.56,51.53-1.47-2.29-16.92-25.53-46.37-27.05-28.25-1.46-45.69,18.28-47.67,20.61.51-2.44,5-25.81-11.59-43.8-12.3-13.39-28.26-15.14-32.2-15.46,12.92-3.55,21.5-15.6,20.61-28.34a27.68,27.68,0,0,0-20.61-24.47c.93-.75,13.28-11.06,11.59-27.05-1.29-12.24-9.89-19.28-11.59-20.62a18.87,18.87,0,0,0-14-5.32A18.79,18.79,0,0,0-8.9,223.05Q-4.46,651.53,0,1080q313.64,4.15,627,16,648.6,24.52,1296,82l-3-98c.86-2,7.62-18.82,0-29-8.43-11.25-33.41-13.07-55,5a161.07,161.07,0,0,0-42-54c-63.13-52.19-145.28-34.89-158-32-5.57-39.18-32.78-70-67-77-33-6.81-59.58,11.16-65,15a130,130,0,0,0-22-15c-57.62-31.13-122.62-9.25-144-1-16.71-13-52.18-36.93-103-44a213.37,213.37,0,0,0-75,3c-18.65-10.2-41-9-57,3-18.42,13.86-19.84,35.78-20,39-.84-16-5.5-27.35-10-35-21.94-37.29-79-53-143-40-2-24.49-17.78-45.37-40-53-28.56-9.81-52.8,7.38-55,9,.87-1.59,4.9-9.34,2-18-3-9.1-12.49-15.48-23.5-15.5,9.44-4.66,15.87-13.61,16.5-23.5.83-13-8.4-25.62-22.5-29.5,8.46-5.14,12.11-15.33,9-24A20.21,20.21,0,0,0,827.5,650.5Z" fill="url(#linear-gradient-2)"/>
    </g>
    <rect x="-0.03" y="1.91" width="1920.03" height="1076.9" fill="#606060" opacity="0.12"/>
  </g>
</svg>
