<svg xmlns="http://www.w3.org/2000/svg" xmlns:xlink="http://www.w3.org/1999/xlink" viewBox="0 0 1923.5 710.21">
  <defs>
    <clipPath id="clip-path" transform="translate(164.56 -45.86)">
      <rect width="888" height="772" fill="none"/>
    </clipPath>
  </defs>
  <title>loAsset 3</title>
  <g id="Layer_2" data-name="Layer 2">
    <g id="Formulario">
      <g clip-path="url(#clip-path)">
        <path d="M1755.44,604.79c-26.27-17-59.33-16.41-82,1-25.37,19.48-26,51-26,55-1.67-.38-17.51-3.7-30.5,7.5-12,10.39-12,25-12,27-2-2.37-14.49-17-36-18-21.07-1-34.75,11.82-37,14-.3-1.95-6.33-36.44-39-50-29.92-12.43-56.42,3.39-59,5-5.42-14.13-19.56-22.31-33-20-10.65,1.83-19.55,10-23,21-16.85-11.36-38.32-12.94-56-4-23.33,11.79-28.43,36-29,39a42.61,42.61,0,0,0-80-4,49.3,49.3,0,0,0-33-1c-18.29,6-26.4,20.91-28,24-.23-1.27-4.11-20.85-21-27a30.79,30.79,0,0,0-17-1c2.62-21.53-7.82-42.25-26-52-23.6-12.67-47.38.09-49,1,4.79-18.53-.11-37.78-13-49-17.77-15.48-48.81-14-69,7-3.78-1.22-21.71-6.54-40,3a51,51,0,0,0-20,19,42.85,42.85,0,0,0-53,24c-4-5.92-34.86-50.18-92-55-44.11-3.73-87.31,17.45-113,55-3.77-1.81-47.89-22-91,3-36.59,21.25-44.81,59.06-46,65-.64-1.24-9.27-17.34-27-19a33.69,33.69,0,0,0-22,6c20.09-40.52,4.43-89-32-109-39.7-21.81-94-4.26-114,41-26.08-16.11-58.33-16.09-82,0-26.55,18-30.46,48.24-31,53-1.36-.49-14.33-4.92-26,3-9.17,6.22-13.87,17.58-12,29-2.14-2.33-19.38-20.37-45-18a53.82,53.82,0,0,0-31,14,57,57,0,0,0-34-54,57,57,0,0,0-62,11,32,32,0,0,0-31-28,32,32,0,0,0-32,28,48.38,48.38,0,0,0-49-12,48.49,48.49,0,0,0-33,43,808,808,0,0,1,61-211" transform="translate(164.56 -45.86)" fill="none" stroke="#1f1646" stroke-linecap="round" stroke-linejoin="round" stroke-width="7"/>
      </g>
      <g>
        <rect x="267.48" y="529.89" width="9.65" height="8.92" transform="translate(-98.79 758.2) rotate(-89.72)" fill="#ece9f2"/>
        <path d="M361,602.38a3.28,3.28,0,0,1,1.28-.78,3.11,3.11,0,0,1,1-.15l49.8.8A3.24,3.24,0,0,1,416,604l63.75,124.13-40-219.58-79.26-20.83A3.24,3.24,0,0,1,358,484.6l-1.12-236.76L273,156,182.5,247.47l.18,235.79a3.32,3.32,0,0,1-2.34,3.12L106.86,507.7,66.41,727.76,129.69,602.9a3.24,3.24,0,0,1,2.91-1.78l49.06.07a3.26,3.26,0,0,1,3.25,3.29l-.78,59,175.82.25.08-59A3.29,3.29,0,0,1,361,602.38Zm-78-60a3.16,3.16,0,0,1-3.17,3.14l-15.24-.07a3.16,3.16,0,0,1-3.14-3.18l.08-16a3.16,3.16,0,0,1,3.17-3.14l15.24.07a3.17,3.17,0,0,1,2.23.94,3.12,3.12,0,0,1,.91,2.24Zm1-31.16a3.16,3.16,0,0,1-3.17,3.14l-15.24-.07a3.16,3.16,0,0,1-3.14-3.18l.25-50.35a3.14,3.14,0,0,1,3.17-3.14l15.23.07a3.16,3.16,0,0,1,3.15,3.18ZM316.42,321.1a42.88,42.88,0,0,1-29.83,40.74,42.79,42.79,0,1,1,29.83-40.74Z" transform="translate(164.56 -45.86)" fill="#ece9f2"/>
        <rect x="251.37" y="481.53" width="44.04" height="8.92" transform="translate(-49.36 711.16) rotate(-89.72)" fill="#ece9f2"/>
        <path d="M273.23,748.9c5.68-4,26.92-20.81,27.63-48.61a61.84,61.84,0,0,0-7.08-29.74l-20.39,0a3.74,3.74,0,0,1-.75-.08l-20.27,0a59.82,59.82,0,0,0-7.16,29.36C245.85,727.72,267.46,744.83,273.23,748.9Z" transform="translate(164.56 -45.86)" fill="#ece9f2"/>
        <path d="M273.66,284.72a35.86,35.86,0,0,0-11.07,1.71,36.32,36.32,0,1,0,11.07-1.71Z" transform="translate(164.56 -45.86)" fill="#ece9f2"/>
        <path d="M180.84,667.83a1.15,1.15,0,0,1-.82-.34,1.17,1.17,0,0,1-.33-.82l.81-61.09-47.21-.06L60.17,749.79a1.13,1.13,0,0,1-1,.63h0a1.19,1.19,0,0,1-.37-.06,1.14,1.14,0,0,1-.75-1.29L102.9,504.93a1.17,1.17,0,0,1,.81-.89l74.58-21.64-.19-236.26a1.16,1.16,0,0,1,.33-.81l93.87-94.9a1.11,1.11,0,0,1,.84-.33,1.12,1.12,0,0,1,.82.37l87,95.33a1.09,1.09,0,0,1,.3.76L362.4,483.7l80.41,21.13a1.16,1.16,0,0,1,.83.91L488,748.94a1.15,1.15,0,0,1-.75,1.29h0a1.17,1.17,0,0,1-1.37-.57l-73.45-143-47.95-.77L364.34,667a1.14,1.14,0,0,1-1.15,1.14L299.77,668c.18.34.35.69.53,1l62.89.09a2.19,2.19,0,0,0,2.2-2.19l.09-60,46.25.75,73.16,142.47a2.2,2.2,0,0,0,4.12-1.4l-44.33-243.2a2.19,2.19,0,0,0-1.6-1.73l-79.63-20.93-1.12-236.33a2.21,2.21,0,0,0-.58-1.47l-87-95.33a2.2,2.2,0,0,0-3.19-.07l-93.87,94.9a2.23,2.23,0,0,0-.63,1.55l.19,235.47L103.41,503a2.2,2.2,0,0,0-1.55,1.71L57,748.88a2.18,2.18,0,0,0,1.46,2.47,2.15,2.15,0,0,0,.7.12,2.2,2.2,0,0,0,2-1.2l72.83-143.7,45.49.06-.79,60a2.19,2.19,0,0,0,.63,1.57,2.26,2.26,0,0,0,1.57.66l65,.09.54-1.05Z" transform="translate(164.56 -45.86)" fill="#1f1646"/>
        <path d="M248.47,664.59l-65.4-.1.79-60a2.22,2.22,0,0,0-2.2-2.23l-49.06-.07a2.22,2.22,0,0,0-2,1.21L64.06,734.73l41.88-227.86,74.11-21.5a2.19,2.19,0,0,0,1.58-2.11L181.44,247l91.61-92.61,84.89,93,1.12,237.17a2.19,2.19,0,0,0,1.64,2.11l79.91,21L482,735,415,604.5a2.2,2.2,0,0,0-1.92-1.2l-49.8-.8a2.21,2.21,0,0,0-1.58.63,2.17,2.17,0,0,0-.65,1.56L361,664.75l-63.43-.09a3.19,3.19,0,0,1,1,1h0l62.46.09h1.05l.09-61.11a1.13,1.13,0,0,1,.34-.81,1.14,1.14,0,0,1,.82-.33l49.8.8a1.15,1.15,0,0,1,1,.63l70.24,136.77L441.52,506.86,361,485.69a1.14,1.14,0,0,1-.86-1.1L359,247.42V247L273.08,152.9,180.7,246.3l-.31.3.19,236.66a1.15,1.15,0,0,1-.8,1.09h0l-74.1,21.5L105,506,61.71,741.7l69.86-137.85a1.13,1.13,0,0,1,1-.62l49.07.06a1.12,1.12,0,0,1,.81.35,1.08,1.08,0,0,1,.33.81l-.8,61.1,65.58.09.06-.1A3,3,0,0,1,248.47,664.59Z" transform="translate(164.56 -45.86)" fill="#1f1646"/>
        <path d="M273.66,282.61A38.43,38.43,0,1,0,312,321.09,38.47,38.47,0,0,0,273.66,282.61ZM311,321.09a37.37,37.37,0,1,1-37.32-37.42A37.42,37.42,0,0,1,311,321.09Z" transform="translate(164.56 -45.86)" fill="#1f1646"/>
        <path d="M273.66,279.27a41.77,41.77,0,1,0,41.71,41.83A41.82,41.82,0,0,0,273.66,279.27Zm40.66,41.82a40.75,40.75,0,1,1-11.9-28.79A40.76,40.76,0,0,1,314.32,321.09Z" transform="translate(164.56 -45.86)" fill="#1f1646"/>
        <path d="M295.71,666.16l-22-.07a1.13,1.13,0,0,0-.32-.05l-22.94,0a1.14,1.14,0,0,0-1,.57l-.75,1.35,48.67.07q-.36-.68-.69-1.26A1.13,1.13,0,0,0,295.71,666.16Z" transform="translate(164.56 -45.86)" fill="#1f1646"/>
        <path d="M295.92,670.1h2.55c-.17-.37-.35-.72-.52-1.06h-2.59Z" transform="translate(164.56 -45.86)" fill="#1f1646"/>
        <path d="M250.75,669h-2.59c-.18.34-.35.69-.53,1h2.56Z" transform="translate(164.56 -45.86)" fill="#1f1646"/>
        <path d="M248.87,665.64h-1.29c-.41.72-.82,1.49-1.24,2.29h1.19c.34-.65.68-1.28,1-1.87A2.22,2.22,0,0,1,248.87,665.64Z" transform="translate(164.56 -45.86)" fill="#1f1646"/>
        <path d="M297.2,665.71a2,2,0,0,1,.41.51c.31.54.64,1.14,1,1.78h1.19c-.43-.84-.85-1.61-1.23-2.29Z" transform="translate(164.56 -45.86)" fill="#1f1646"/>
        <path d="M274.16,664a3.84,3.84,0,0,0-.76-.08l-22.94,0a3.23,3.23,0,0,0-2,.69l49.1.07a3.2,3.2,0,0,0-1.86-.6Z" transform="translate(164.56 -45.86)" fill="#1f1646"/>
        <path d="M294.41,669.5l-21,0a2.16,2.16,0,0,1-.62-.09l-21,0c-.13.22-.25.46-.37.69l43.34.06Z" transform="translate(164.56 -45.86)" fill="#1f1646"/>
        <path d="M299.13,669.05l.52,1.06h1.16c-.17-.37-.34-.71-.51-1.06Z" transform="translate(164.56 -45.86)" fill="#1f1646"/>
        <path d="M247,669H245.8c-.17.34-.35.69-.52,1h1.17C246.63,669.68,246.8,669.32,247,669Z" transform="translate(164.56 -45.86)" fill="#1f1646"/>
        <path d="M301.91,700.32c-.74,29.15-23.31,46.21-28.68,49.86-5.62-3.83-28.41-21.15-29.07-50.39A60.59,60.59,0,0,1,251.38,670h-1.19a61.79,61.79,0,0,0-7.08,29.78c.66,29.3,22.76,46.62,29.52,51.23l.6.4.59-.4c4.73-3.22,28.38-20.79,29.14-50.71a63.8,63.8,0,0,0-7-30.24h-1.2A62.22,62.22,0,0,1,301.91,700.32Z" transform="translate(164.56 -45.86)" fill="#1f1646"/>
        <path d="M305.25,700.4c-.84,32.85-28,51.19-31.1,53.18l-.13.09a.8.8,0,0,1-.19.13,1.21,1.21,0,0,1-.6.17,1,1,0,0,1-.55-.16c-1.27-.78-31.08-19.52-31.86-53.94A63.71,63.71,0,0,1,247.63,670h-1.18a64.72,64.72,0,0,0-6.68,29.86c.79,35,31.07,54,32.35,54.82a2.08,2.08,0,0,0,1.1.31,2.28,2.28,0,0,0,1.13-.3,1.83,1.83,0,0,0,.36-.26c3.33-2.12,30.74-20.68,31.59-54a66.48,66.48,0,0,0-6.65-30.32h-1.18A65.3,65.3,0,0,1,305.25,700.4Z" transform="translate(164.56 -45.86)" fill="#1f1646"/>
        <path d="M274,665.08a2.16,2.16,0,0,0-.62-.09l-22.94,0a2.19,2.19,0,0,0-1.59.68l48.33.07a2.16,2.16,0,0,0-1.49-.6Z" transform="translate(164.56 -45.86)" fill="#1f1646"/>
        <path d="M297.39,668l.56,1h1.18l-.55-1Z" transform="translate(164.56 -45.86)" fill="#1f1646"/>
        <path d="M248.72,667.93h-1.19c-.19.34-.37.69-.56,1.05h1.19C248.35,668.63,248.53,668.27,248.72,667.93Z" transform="translate(164.56 -45.86)" fill="#1f1646"/>
        <path d="M295.34,669l-.3-.55-21.65,0a1.13,1.13,0,0,1-.32,0l-21.95-.07-.3.55-.07.13,44.61.07Z" transform="translate(164.56 -45.86)" fill="#1f1646"/>
        <g>
          <g>
            <g>
              <path d="M59.15,751.47a2.15,2.15,0,0,1-.7-.12A2.18,2.18,0,0,1,57,748.88l44.87-244.14a2.2,2.2,0,0,1,1.55-1.71l73.83-21.42-.19-235.47a2.23,2.23,0,0,1,.63-1.55l93.87-94.9a2.2,2.2,0,0,1,3.19.07l87,95.33a2.21,2.21,0,0,1,.58,1.47l1.12,236.33,79.63,20.93a2.19,2.19,0,0,1,1.6,1.73L489,748.75a2.2,2.2,0,0,1-4.12,1.4L411.73,607.68l-46.25-.75-.09,60a2.19,2.19,0,0,1-2.2,2.19l-182.35-.25a2.26,2.26,0,0,1-1.57-.66,2.19,2.19,0,0,1-.63-1.57l.79-60-45.49-.06L61.11,750.27A2.2,2.2,0,0,1,59.15,751.47Zm46.79-244.6L64.06,734.73l66.57-131.35a2.22,2.22,0,0,1,2-1.21l49.07.07a2.22,2.22,0,0,1,2.2,2.23l-.79,60,177.93.26.09-60.06a2.17,2.17,0,0,1,.65-1.56,2.21,2.21,0,0,1,1.58-.63l49.8.8a2.2,2.2,0,0,1,1.92,1.2L482,735,440.61,507.71l-79.91-21a2.19,2.19,0,0,1-1.64-2.11l-1.12-237.17-84.89-93L181.44,247l.19,236.22a2.19,2.19,0,0,1-1.58,2.11Z" transform="translate(164.56 -45.86)" fill="#1f1646"/>
              <path d="M487.83,752.24a3.26,3.26,0,0,1-3.87-1.61L411.08,608.72,366.53,608l-.08,59a3.26,3.26,0,0,1-3.26,3.25l-182.36-.26a3.24,3.24,0,0,1-3.24-3.29l.78-59-43.78-.07L62.05,750.74a3.24,3.24,0,0,1-2.9,1.78,3.25,3.25,0,0,1-3.2-3.83l44.88-244.14a3.3,3.3,0,0,1,2.29-2.53l73.06-21.2L176,246.14a3.2,3.2,0,0,1,.94-2.29L270.8,149a3.25,3.25,0,0,1,4.71.1l87,95.33a3.28,3.28,0,0,1,.85,2.17l1.12,235.53,78.84,20.72a3.27,3.27,0,0,1,2.38,2.56L490,748.56a3.25,3.25,0,0,1-2.15,3.66ZM364.43,605.86l47.95.77,73.45,143a1.17,1.17,0,0,0,1.37.57h0a1.15,1.15,0,0,0,.75-1.29l-44.33-243.2a1.16,1.16,0,0,0-.83-.91L362.4,483.7l-1.13-237.14a1.09,1.09,0,0,0-.3-.76l-87-95.33a1.12,1.12,0,0,0-.82-.37,1.11,1.11,0,0,0-.84.33l-93.87,94.9a1.16,1.16,0,0,0-.33.81l.19,236.26L103.71,504a1.17,1.17,0,0,0-.81.89L58,749.07a1.14,1.14,0,0,0,.75,1.29,1.19,1.19,0,0,0,.37.06h0a1.13,1.13,0,0,0,1-.63l73.12-144.27,47.21.06-.81,61.09a1.17,1.17,0,0,0,.33.82,1.15,1.15,0,0,0,.82.34l182.35.26a1.14,1.14,0,0,0,1.15-1.14ZM484.34,741.75,414.1,605a1.15,1.15,0,0,0-1-.63l-49.8-.8a1.14,1.14,0,0,0-.82.33,1.13,1.13,0,0,0-.34.81l-.09,61.11H361l-179-.25.8-61.1a1.08,1.08,0,0,0-.33-.81,1.12,1.12,0,0,0-.81-.35l-49.07-.06a1.13,1.13,0,0,0-1,.62L61.71,741.7,105,506l.63-.18,74.1-21.5h0a1.15,1.15,0,0,0,.8-1.09l-.19-236.66.31-.3,92.38-93.4L359,247v.41l1.12,237.17a1.16,1.16,0,0,0,.86,1.1l80.55,21.17Zm-122-140.15a3.11,3.11,0,0,1,1-.15l49.8.8A3.24,3.24,0,0,1,416,604l63.75,124.13-40-219.58-79.26-20.83A3.24,3.24,0,0,1,358,484.6l-1.12-236.76L273,156,182.5,247.47l.18,235.79a3.32,3.32,0,0,1-2.34,3.12L106.86,507.7,66.41,727.76,129.69,602.9a3.24,3.24,0,0,1,2.91-1.78l49.06.07a3.26,3.26,0,0,1,3.25,3.29l-.78,59,175.82.25.08-59a3.28,3.28,0,0,1,2.26-3.09Z" transform="translate(164.56 -45.86)" fill="#1f1646"/>
            </g>
            <g>
              <path d="M273.55,362.8a41.77,41.77,0,1,1,41.82-41.7A41.81,41.81,0,0,1,273.55,362.8Zm.11-79.13A37.37,37.37,0,1,0,311,321.09,37.4,37.4,0,0,0,273.66,283.67Z" transform="translate(164.56 -45.86)" fill="#261d44"/>
              <path d="M286.59,361.84a42.79,42.79,0,1,1,29.83-40.74A42.88,42.88,0,0,1,286.59,361.84Zm-25.37-79.6a40.79,40.79,0,1,0,12.44-1.91A40.74,40.74,0,0,0,261.22,282.24Zm24,75.41a38.43,38.43,0,1,1-11.6-75h0a38.43,38.43,0,0,1,11.6,75Zm-22.67-71.22a36.32,36.32,0,1,0,11.07-1.71h0A35.86,35.86,0,0,0,262.59,286.43Z" transform="translate(164.56 -45.86)" fill="#261d44"/>
            </g>
            <g>
              <path d="M273.22,755a2.08,2.08,0,0,1-1.1-.31c-1.28-.79-31.56-19.82-32.35-54.82a65.36,65.36,0,0,1,8.78-33.83,2.2,2.2,0,0,1,1.91-1.1l22.94,0a2.16,2.16,0,0,1,.62.09l21.69,0a2.17,2.17,0,0,1,1.9,1.11,66.85,66.85,0,0,1,8.69,34.21c-.85,33.35-28.26,51.91-31.59,54a1.83,1.83,0,0,1-.36.26A2.28,2.28,0,0,1,273.22,755Zm-21.47-85.67a60.71,60.71,0,0,0-7.59,30.44c.66,29.24,23.45,46.56,29.07,50.39,5.37-3.65,27.94-20.71,28.68-49.86a62.38,62.38,0,0,0-7.5-30.82l-21,0a2.16,2.16,0,0,1-.62-.09Z" transform="translate(164.56 -45.86)" fill="#261d44"/>
              <path d="M274.24,755.91a3.2,3.2,0,0,1-1,.16h0a3.16,3.16,0,0,1-1.65-.46c-1.31-.81-32-20.14-32.86-55.69a66.43,66.43,0,0,1,8.93-34.38,3.26,3.26,0,0,1,2.82-1.64l22.94,0a3.84,3.84,0,0,1,.76.08l21.55,0a3.26,3.26,0,0,1,2.82,1.64,68.06,68.06,0,0,1,8.83,34.76c-.87,33.73-28.55,52.62-32,54.85a2.56,2.56,0,0,1-.48.33A3.76,3.76,0,0,1,274.24,755.91Zm-1-1.94a1.21,1.21,0,0,0,.6-.17.8.8,0,0,0,.19-.13l.13-.09c3.09-2,30.26-20.33,31.1-53.18a65.9,65.9,0,0,0-8.55-33.66,1.13,1.13,0,0,0-1-.58l-22-.07a1.13,1.13,0,0,0-.32-.05l-22.94,0a1.14,1.14,0,0,0-1,.57,64.3,64.3,0,0,0-8.65,33.29c.78,34.42,30.59,53.16,31.86,53.94a1,1,0,0,0,.55.16Zm0-2.52-.59-.4c-6.76-4.61-28.86-21.93-29.52-51.23a61.93,61.93,0,0,1,7.71-31l.3-.55,21.95.07a1.14,1.14,0,0,0,.33,0l21.64,0,.3.55A64,64,0,0,1,303,700.35c-.76,29.91-24.41,47.48-29.14,50.7Zm-20.85-81a59.82,59.82,0,0,0-7.16,29.36c.64,28,22.25,45.06,28,49.13,5.68-4,26.92-20.81,27.63-48.61a61.84,61.84,0,0,0-7.08-29.74l-20.39,0a3.74,3.74,0,0,1-.75-.08Z" transform="translate(164.56 -45.86)" fill="#261d44"/>
            </g>
          </g>
          <g>
            <path d="M281.84,514.21a3.17,3.17,0,0,1-1,.15l-15.24-.07a3.16,3.16,0,0,1-3.14-3.18l.25-50.35a3.14,3.14,0,0,1,3.17-3.14l15.23.07a3.16,3.16,0,0,1,3.15,3.18L284,511.22a3.12,3.12,0,0,1-2.2,3Zm-13-6.22,8.92,0,.21-44L269,464Z" transform="translate(164.56 -45.86)" fill="#1f1646"/>
            <path d="M280.85,545.37a3.28,3.28,0,0,1-1,.15l-15.23-.07a3.16,3.16,0,0,1-3.15-3.18l.08-16a3.16,3.16,0,0,1,3.17-3.14l15.24.07a3.17,3.17,0,0,1,2.23.94,3.12,3.12,0,0,1,.91,2.24l-.08,16a3.16,3.16,0,0,1-.93,2.23A3.21,3.21,0,0,1,280.85,545.37Zm-13-6.22,8.92,0,.05-9.65-8.92,0Z" transform="translate(164.56 -45.86)" fill="#1f1646"/>
          </g>
        </g>
      </g>
      <g>
        <ellipse cx="511.38" cy="39.12" rx="4.8" ry="4.54" fill="#1f1646"/>
        <g>
          <path d="M609.87,184.18a22.9,22.9,0,0,1,1.4,4.89,39.34,39.34,0,0,1,.55,4.93,37.37,37.37,0,0,1-.1,5,22.82,22.82,0,0,1-1,5,22.94,22.94,0,0,1-1.41-4.89,37.35,37.35,0,0,1-.54-4.93,39.15,39.15,0,0,1,.1-5A23.43,23.43,0,0,1,609.87,184.18Z" transform="translate(164.56 -45.86)" fill="#1f1646"/>
          <path d="M618.37,193.52a15.74,15.74,0,0,1-4,1.45,25.93,25.93,0,0,1-4,.6,24.93,24.93,0,0,1-4,0,15.75,15.75,0,0,1-4.1-.9,15.82,15.82,0,0,1,3.94-1.45,25.06,25.06,0,0,1,4-.6,27.26,27.26,0,0,1,4,.05A15.82,15.82,0,0,1,618.37,193.52Z" transform="translate(164.56 -45.86)" fill="#1f1646"/>
        </g>
        <g>
          <path d="M84.87,65.18a22.9,22.9,0,0,1,1.4,4.89A39.34,39.34,0,0,1,86.82,75a37.37,37.37,0,0,1-.1,5,22.82,22.82,0,0,1-1,5,22.94,22.94,0,0,1-1.41-4.89,37.35,37.35,0,0,1-.54-4.93,39.15,39.15,0,0,1,.1-5A23.43,23.43,0,0,1,84.87,65.18Z" transform="translate(164.56 -45.86)" fill="#1f1646"/>
          <path d="M93.37,74.52a15.74,15.74,0,0,1-4,1.45,25.93,25.93,0,0,1-4,.6,24.93,24.93,0,0,1-4,0,15.75,15.75,0,0,1-4.1-.9,15.82,15.82,0,0,1,3.94-1.45,24.89,24.89,0,0,1,4-.6,27.26,27.26,0,0,1,4,.05A15.82,15.82,0,0,1,93.37,74.52Z" transform="translate(164.56 -45.86)" fill="#1f1646"/>
        </g>
        <ellipse cx="979.73" cy="477.42" rx="5.51" ry="5.21" fill="#1f1646"/>
        <ellipse cx="220.9" cy="386.91" rx="4.8" ry="4.54" fill="#1f1646"/>
        <ellipse cx="969.73" cy="4.54" rx="4.8" ry="4.54" fill="#1f1646"/>
        <g>
          <path d="M614.8,476.33a48.08,48.08,0,0,1-1.26,7.26q-.87,3.54-2.06,7t-2.66,6.77a47.69,47.69,0,0,1-3.48,6.48,45.76,45.76,0,0,1,1.25-7.25q.87-3.54,2.06-7c.79-2.29,1.67-4.55,2.67-6.77A47.29,47.29,0,0,1,614.8,476.33Z" transform="translate(164.56 -45.86)" fill="#1f1646"/>
          <path d="M624.59,494.55a52.84,52.84,0,0,1-7.61-1.11c-2.48-.54-4.93-1.19-7.36-1.93s-4.81-1.59-7.16-2.55a51.16,51.16,0,0,1-6.91-3.36,50.25,50.25,0,0,1,7.6,1.11c2.49.53,4.94,1.18,7.36,1.93s4.81,1.59,7.16,2.55A51.86,51.86,0,0,1,624.59,494.55Z" transform="translate(164.56 -45.86)" fill="#1f1646"/>
        </g>
        <g>
          <path d="M794.8,281.33a48.08,48.08,0,0,1-1.26,7.26q-.87,3.54-2.06,7t-2.66,6.77a47.69,47.69,0,0,1-3.48,6.48,45.76,45.76,0,0,1,1.25-7.25q.87-3.54,2.06-7c.79-2.29,1.67-4.55,2.67-6.77A47.29,47.29,0,0,1,794.8,281.33Z" transform="translate(164.56 -45.86)" fill="#1f1646"/>
          <path d="M804.59,299.55a52.84,52.84,0,0,1-7.61-1.11c-2.48-.54-4.93-1.19-7.36-1.93s-4.81-1.59-7.16-2.55a51.16,51.16,0,0,1-6.91-3.36,50.25,50.25,0,0,1,7.6,1.11c2.49.53,4.94,1.18,7.36,1.93s4.81,1.59,7.16,2.55A51.86,51.86,0,0,1,804.59,299.55Z" transform="translate(164.56 -45.86)" fill="#1f1646"/>
        </g>
        <g>
          <path d="M104.76,283.44a22.88,22.88,0,0,1-.57,5.09,39.13,39.13,0,0,1-3.36,9.37,23,23,0,0,1-2.8,4.28,22.86,22.86,0,0,1,.58-5.08,35.51,35.51,0,0,1,1.38-4.79,37.74,37.74,0,0,1,2-4.58A23.78,23.78,0,0,1,104.76,283.44Z" transform="translate(164.56 -45.86)" fill="#1f1646"/>
          <path d="M109.11,295.06a15.82,15.82,0,0,1-4.18,0,25,25,0,0,1-4-.82,23.92,23.92,0,0,1-3.77-1.43,15.4,15.4,0,0,1-3.52-2.25,15.4,15.4,0,0,1,4.18,0,24.67,24.67,0,0,1,7.71,2.25A15.8,15.8,0,0,1,109.11,295.06Z" transform="translate(164.56 -45.86)" fill="#1f1646"/>
        </g>
        <g>
          <path d="M447.76,343.44a22.88,22.88,0,0,1-.57,5.09,39.13,39.13,0,0,1-3.36,9.37,23,23,0,0,1-2.8,4.28,22.86,22.86,0,0,1,.58-5.08,35.51,35.51,0,0,1,1.38-4.79,37.74,37.74,0,0,1,2-4.58A23.78,23.78,0,0,1,447.76,343.44Z" transform="translate(164.56 -45.86)" fill="#1f1646"/>
          <path d="M452.11,355.06a15.82,15.82,0,0,1-4.18,0,25,25,0,0,1-3.95-.82,23.92,23.92,0,0,1-3.77-1.43,15.4,15.4,0,0,1-3.52-2.25,15.4,15.4,0,0,1,4.18,0,24.67,24.67,0,0,1,7.71,2.25A15.8,15.8,0,0,1,452.11,355.06Z" transform="translate(164.56 -45.86)" fill="#1f1646"/>
        </g>
      </g>
    </g>
  </g>
</svg>
