<svg xmlns="http://www.w3.org/2000/svg" xmlns:xlink="http://www.w3.org/1999/xlink" viewBox="0 0 1923.5 709.21"><defs><style>.cls-1,.cls-3{fill:none;}.cls-2{clip-path:url(#clip-path);}.cls-3{stroke:#1f1646;stroke-linecap:round;stroke-linejoin:round;stroke-width:7px;}.cls-4{fill:#ece9f2;}.cls-5{fill:#1f1646;}.cls-6{fill:#261d44;}</style><clipPath id="clip-path" transform="translate(164.56 -318.07)"><rect class="cls-1" width="888" height="1044.21"/></clipPath></defs><g id="Layer_2" data-name="Layer 2"><g id="Formulario"><g class="cls-2"><path class="cls-3" d="M1755.44,877c-26.27-17-59.33-16.41-82,1-25.37,19.48-26,51-26,55-1.67-.38-17.51-3.7-30.5,7.5-12,10.39-12,25-12,27-2-2.37-14.49-17-36-18-21.07-1-34.75,11.82-37,14-.3-2-6.33-36.43-39-50-29.92-12.43-56.42,3.4-59,5-5.42-14.12-19.56-22.31-33-20-10.65,1.83-19.55,10-23,21-16.85-11.35-38.32-12.94-56-4-23.33,11.8-28.43,36-29,39a42.61,42.61,0,0,0-80-4,49.3,49.3,0,0,0-33-1c-18.29,6-26.4,20.91-28,24-.23-1.27-4.11-20.84-21-27a30.88,30.88,0,0,0-17-1c2.62-21.53-7.82-42.25-26-52-23.6-12.66-47.38.09-49,1,4.79-18.53-.11-37.78-13-49-17.77-15.48-48.81-14-69,7-3.78-1.22-21.7-6.53-40,3a51,51,0,0,0-20,19,42.85,42.85,0,0,0-53,24c-4-5.92-34.86-50.18-92-55-44.11-3.72-87.31,17.45-113,55-3.77-1.81-47.89-22-91,3-36.58,21.25-44.81,59.06-46,65-.64-1.24-9.27-17.34-27-19a33.75,33.75,0,0,0-22,6c20.09-40.52,4.43-89-32-109-39.7-21.8-94-4.26-114,41-26.08-16.1-58.33-16.09-82,0-26.55,18-30.46,48.24-31,53-1.36-.49-14.33-4.91-26,3-9.17,6.22-13.87,17.58-12,29-2.14-2.32-19.38-20.37-45-18a53.82,53.82,0,0,0-31,14,57,57,0,0,0-34-54,57,57,0,0,0-62,11,32,32,0,0,0-31-28,32,32,0,0,0-32,28,48.38,48.38,0,0,0-49-12,48.49,48.49,0,0,0-33,43,808,808,0,0,1,61-211" transform="translate(164.56 -318.07)"/></g><rect class="cls-4" x="267.48" y="801.1" width="9.65" height="8.92" transform="translate(-370 755.88) rotate(-89.72)"/><path class="cls-4" d="M361,873.59a3.28,3.28,0,0,1,1.28-.78,3.38,3.38,0,0,1,1-.15l49.8.8a3.23,3.23,0,0,1,2.83,1.77l63.75,124.13-40-219.59-79.26-20.83a3.24,3.24,0,0,1-2.42-3.12l-1.12-236.77L273,427.17,182.5,518.68l.18,235.79a3.34,3.34,0,0,1-2.34,3.13l-73.48,21.32L66.41,999l63.28-124.87a3.24,3.24,0,0,1,2.91-1.78l49.06.07a3.26,3.26,0,0,1,3.25,3.29l-.78,59L360,934.9l.08-59A3.31,3.31,0,0,1,361,873.59Zm-78-60a3.12,3.12,0,0,1-2.2,3,2.89,2.89,0,0,1-1,.15l-15.24-.07a3.16,3.16,0,0,1-3.14-3.17l.08-16a3.16,3.16,0,0,1,3.17-3.14l15.24.07a3.21,3.21,0,0,1,2.23.94,3.14,3.14,0,0,1,.91,2.24Zm1-31.16a3.16,3.16,0,0,1-.93,2.23,3.2,3.2,0,0,1-1.27.77,3.16,3.16,0,0,1-1,.14l-15.24-.07a3.16,3.16,0,0,1-3.14-3.17l.25-50.36a3.14,3.14,0,0,1,3.17-3.14l15.23.07a3.16,3.16,0,0,1,3.15,3.18Zm32.38-190.12A42.87,42.87,0,1,1,303.91,562,42.9,42.9,0,0,1,316.42,592.31Z" transform="translate(164.56 -318.07)"/><rect class="cls-4" x="251.37" y="752.74" width="44.04" height="8.92" transform="translate(-320.57 708.84) rotate(-89.72)"/><path class="cls-4" d="M273.23,1020.11c5.68-4,26.92-20.81,27.63-48.61a61.77,61.77,0,0,0-7.08-29.73l-20.39,0a3.14,3.14,0,0,1-.75-.09l-20.27,0A59.85,59.85,0,0,0,245.21,971C245.85,998.93,267.46,1016,273.23,1020.11Z" transform="translate(164.56 -318.07)"/><path class="cls-4" d="M273.66,555.93a36.32,36.32,0,1,0,36.26,36.37A36.47,36.47,0,0,0,273.66,555.93Z" transform="translate(164.56 -318.07)"/><path class="cls-5" d="M180.84,939.05a1.16,1.16,0,0,1-1.15-1.16l.81-61.1-47.21-.06L60.17,1021a1.13,1.13,0,0,1-1,.63h0a1.19,1.19,0,0,1-.37-.06,1.14,1.14,0,0,1-.75-1.29L102.9,776.15a1.14,1.14,0,0,1,.81-.89l74.58-21.64-.19-236.27a1.18,1.18,0,0,1,.33-.81l93.87-94.89a1.08,1.08,0,0,1,.84-.34,1.12,1.12,0,0,1,.82.37L361,517a1.1,1.1,0,0,1,.3.77l1.13,237.14,80.41,21.13a1.13,1.13,0,0,1,.83.9L488,1020.15a1.15,1.15,0,0,1-.75,1.29h0a1.15,1.15,0,0,1-1.37-.57l-73.45-143-47.95-.78-.09,61.09a1.13,1.13,0,0,1-.34.81,1.1,1.1,0,0,1-.81.33l-63.42-.09c.18.34.35.7.53,1.06l62.89.09a2.19,2.19,0,0,0,2.2-2.2l.09-60,46.25.75,73.16,142.47A2.2,2.2,0,0,0,489,1020l-44.33-243.2a2.19,2.19,0,0,0-1.6-1.73L363.45,754.1l-1.12-236.33a2.23,2.23,0,0,0-.58-1.47l-87-95.33a2.22,2.22,0,0,0-1.58-.71,2.16,2.16,0,0,0-1.61.65L177.68,515.8a2.23,2.23,0,0,0-.63,1.55l.19,235.48-73.83,21.41a2.21,2.21,0,0,0-1.55,1.72L57,1020.09a2.19,2.19,0,0,0,1.46,2.48,2.13,2.13,0,0,0,.7.11,2.18,2.18,0,0,0,2-1.2l72.83-143.7,45.49.07-.79,60a2.19,2.19,0,0,0,.63,1.57,2.22,2.22,0,0,0,1.57.66l65,.09.54-1.05Z" transform="translate(164.56 -318.07)"/><path class="cls-5" d="M248.47,935.8l-65.4-.09.79-60a2.22,2.22,0,0,0-2.2-2.23l-49.06-.06a2.19,2.19,0,0,0-2,1.2L64.06,1005.94l41.88-227.85,74.11-21.5a2.21,2.21,0,0,0,1.58-2.12l-.19-236.22,91.61-92.61,84.89,93,1.12,237.17a2.19,2.19,0,0,0,1.64,2.11l79.91,21L482,1006.16,415,875.71a2.19,2.19,0,0,0-1.92-1.19l-49.8-.81a2.19,2.19,0,0,0-2.23,2.2L361,936l-63.43-.09a3.19,3.19,0,0,1,1,1h0L361,937h1.05l.09-61.1a1.15,1.15,0,0,1,.34-.82,1.18,1.18,0,0,1,.82-.33l49.8.81a1.12,1.12,0,0,1,1,.62L484.34,1013,441.52,778.08,361,756.91a1.16,1.16,0,0,1-.86-1.1L359,518.63v-.4l-85.91-94.12-92.38,93.4-.31.31.19,236.65a1.16,1.16,0,0,1-.8,1.1h0l-74.1,21.51-.63.18L61.71,1012.91l69.86-137.85a1.15,1.15,0,0,1,1-.62l49.07.07a1.14,1.14,0,0,1,1.14,1.16l-.8,61.09,65.58.09.06-.1A3.29,3.29,0,0,1,248.47,935.8Z" transform="translate(164.56 -318.07)"/><path class="cls-5" d="M273.66,553.83A38.43,38.43,0,1,0,312,592.31,38.47,38.47,0,0,0,273.66,553.83ZM311,592.3a37.37,37.37,0,1,1-37.32-37.42A37.42,37.42,0,0,1,311,592.3Z" transform="translate(164.56 -318.07)"/><path class="cls-5" d="M273.66,550.49a41.76,41.76,0,1,0,41.71,41.82A41.8,41.8,0,0,0,273.66,550.49Zm40.66,41.82a40.77,40.77,0,1,1-11.9-28.79A40.75,40.75,0,0,1,314.32,592.31Z" transform="translate(164.56 -318.07)"/><path class="cls-5" d="M295.71,937.37l-22-.07a1.13,1.13,0,0,0-.32,0l-22.94,0a1.13,1.13,0,0,0-1,.58c-.25.43-.5.88-.75,1.34l48.67.07c-.24-.44-.47-.87-.69-1.26A1.17,1.17,0,0,0,295.71,937.37Z" transform="translate(164.56 -318.07)"/><path class="cls-5" d="M295.92,941.31h2.55c-.17-.36-.35-.72-.52-1.06h-2.59Z" transform="translate(164.56 -318.07)"/><path class="cls-5" d="M250.75,940.2h-2.59c-.18.35-.35.7-.53,1.06h2.56C250.38,940.89,250.56,940.54,250.75,940.2Z" transform="translate(164.56 -318.07)"/><path class="cls-5" d="M248.87,936.85h-1.29c-.41.72-.82,1.49-1.24,2.29h1.19c.34-.65.68-1.28,1-1.87A2.59,2.59,0,0,1,248.87,936.85Z" transform="translate(164.56 -318.07)"/><path class="cls-5" d="M297.2,936.92a2.24,2.24,0,0,1,.41.51c.31.54.64,1.14,1,1.78h1.19c-.43-.83-.85-1.61-1.23-2.29Z" transform="translate(164.56 -318.07)"/><path class="cls-5" d="M274.16,935.24a3.22,3.22,0,0,0-.76-.09l-22.94,0a3.22,3.22,0,0,0-2,.68l49.1.07a3.2,3.2,0,0,0-1.86-.6Z" transform="translate(164.56 -318.07)"/><path class="cls-5" d="M294.41,940.71l-21,0a2.16,2.16,0,0,1-.62-.09l-21,0c-.13.23-.25.46-.37.69l43.34.06Z" transform="translate(164.56 -318.07)"/><path class="cls-5" d="M299.13,940.27l.52,1.05h1.16l-.51-1.05Z" transform="translate(164.56 -318.07)"/><path class="cls-5" d="M247,940.19H245.8c-.17.35-.35.69-.52,1h1.17C246.63,940.89,246.8,940.53,247,940.19Z" transform="translate(164.56 -318.07)"/><path class="cls-5" d="M301.91,971.53c-.74,29.15-23.31,46.21-28.68,49.86-5.62-3.83-28.41-21.15-29.07-50.39a60.59,60.59,0,0,1,7.22-29.75h-1.19A61.82,61.82,0,0,0,243.11,971c.66,29.3,22.76,46.62,29.52,51.23l.6.41.59-.41c4.73-3.22,28.38-20.79,29.14-50.7a63.81,63.81,0,0,0-7-30.25h-1.2A62.25,62.25,0,0,1,301.91,971.53Z" transform="translate(164.56 -318.07)"/><path class="cls-5" d="M305.25,971.62c-.84,32.85-28,51.19-31.1,53.17l-.13.09a.85.85,0,0,1-.19.14,1.31,1.31,0,0,1-.6.16,1.13,1.13,0,0,1-.55-.15c-1.27-.78-31.08-19.53-31.86-53.95a63.66,63.66,0,0,1,6.81-29.83h-1.18a64.75,64.75,0,0,0-6.68,29.86c.79,35,31.07,54,32.35,54.82a2.08,2.08,0,0,0,1.1.31,2.17,2.17,0,0,0,1.49-.55c3.33-2.13,30.74-20.69,31.59-54a66.51,66.51,0,0,0-6.65-30.32h-1.18A65.32,65.32,0,0,1,305.25,971.62Z" transform="translate(164.56 -318.07)"/><path class="cls-5" d="M274,936.29a2.16,2.16,0,0,0-.62-.09l-22.94,0a2.19,2.19,0,0,0-1.59.68l48.33.07a2.21,2.21,0,0,0-1.49-.6Z" transform="translate(164.56 -318.07)"/><path class="cls-5" d="M297.39,939.21l.56,1h1.18l-.55-1.06Z" transform="translate(164.56 -318.07)"/><path class="cls-5" d="M248.72,939.14h-1.19l-.56,1.05h1.19C248.35,939.84,248.53,939.48,248.72,939.14Z" transform="translate(164.56 -318.07)"/><path class="cls-5" d="M295.34,940.21l-.3-.55-21.65,0a1.12,1.12,0,0,1-.32,0l-21.95-.08-.3.55-.07.14,44.61.06Z" transform="translate(164.56 -318.07)"/><path class="cls-5" d="M59.15,1022.68a2.13,2.13,0,0,1-.7-.11,2.19,2.19,0,0,1-1.46-2.48L101.86,776a2.21,2.21,0,0,1,1.55-1.72l73.83-21.41-.19-235.48a2.23,2.23,0,0,1,.63-1.55l93.87-94.89a2.16,2.16,0,0,1,1.61-.65,2.22,2.22,0,0,1,1.58.71l87,95.33a2.23,2.23,0,0,1,.58,1.47l1.12,236.33L443.08,775a2.19,2.19,0,0,1,1.6,1.73L489,1020a2.2,2.2,0,0,1-4.12,1.4L411.73,878.89l-46.25-.75-.09,60a2.19,2.19,0,0,1-2.2,2.2l-182.35-.26a2.22,2.22,0,0,1-1.57-.66,2.19,2.19,0,0,1-.63-1.57l.79-60-45.49-.07-72.83,143.7A2.18,2.18,0,0,1,59.15,1022.68Zm46.79-244.59L64.06,1005.94l66.57-131.35a2.19,2.19,0,0,1,2-1.2l49.07.06a2.22,2.22,0,0,1,2.2,2.23l-.79,60L361,936l.09-60.05a2.19,2.19,0,0,1,2.23-2.2l49.8.81a2.19,2.19,0,0,1,1.92,1.19l67,130.45L440.61,778.92l-79.91-21a2.19,2.19,0,0,1-1.64-2.11l-1.12-237.17-84.89-93-91.61,92.61.19,236.22a2.21,2.21,0,0,1-1.58,2.12Z" transform="translate(164.56 -318.07)"/><path class="cls-5" d="M487.83,1023.45a3.25,3.25,0,0,1-3.87-1.61L411.08,879.93l-44.55-.72-.08,58.95a3.26,3.26,0,0,1-3.26,3.25l-182.36-.26a3.24,3.24,0,0,1-3.24-3.29l.78-59-43.78-.06L62.05,1022a3.26,3.26,0,0,1-2.9,1.78,3.29,3.29,0,0,1-1-.18A3.26,3.26,0,0,1,56,1019.9l44.88-244.13a3.3,3.3,0,0,1,2.29-2.54L176.18,752,176,517.35a3.22,3.22,0,0,1,.94-2.29l93.86-94.89a3.2,3.2,0,0,1,2.41-1,3.27,3.27,0,0,1,2.3,1.06l87,95.33a3.31,3.31,0,0,1,.85,2.18l1.12,235.52L443.34,774a3.27,3.27,0,0,1,2.38,2.56L490,1019.78a3.26,3.26,0,0,1-2.15,3.66ZM364.43,877.07l47.95.78,73.45,143a1.15,1.15,0,0,0,1.37.57h0a1.15,1.15,0,0,0,.75-1.29L443.64,777a1.13,1.13,0,0,0-.83-.9L362.4,754.92l-1.13-237.14a1.1,1.1,0,0,0-.3-.77l-87-95.33a1.12,1.12,0,0,0-.82-.37,1.08,1.08,0,0,0-.84.34l-93.87,94.89a1.18,1.18,0,0,0-.33.81l.19,236.27-74.58,21.64a1.14,1.14,0,0,0-.81.89L58,1020.28a1.14,1.14,0,0,0,.75,1.29,1.19,1.19,0,0,0,.37.06h0a1.13,1.13,0,0,0,1-.63l73.12-144.27,47.21.06-.81,61.1a1.16,1.16,0,0,0,1.15,1.16l182.35.25A1.1,1.1,0,0,0,364,939a1.13,1.13,0,0,0,.34-.81ZM484.34,1013,414.1,876.19a1.12,1.12,0,0,0-1-.62l-49.8-.81a1.18,1.18,0,0,0-.82.33,1.15,1.15,0,0,0-.34.82l-.09,61.1H361l-179-.25.8-61.09a1.14,1.14,0,0,0-1.14-1.16l-49.07-.07a1.15,1.15,0,0,0-1,.62L61.71,1012.91,105,777.26l.63-.18,74.1-21.51h0a1.16,1.16,0,0,0,.8-1.1l-.19-236.65.31-.31,92.38-93.4L359,518.23v.4l1.12,237.18a1.17,1.17,0,0,0,.86,1.1l80.55,21.16Zm-122-140.15a3.38,3.38,0,0,1,1-.15l49.8.8a3.23,3.23,0,0,1,2.83,1.77l63.75,124.13-40-219.59-79.26-20.83a3.24,3.24,0,0,1-2.42-3.12l-1.12-236.77L273,427.17,182.5,518.68l.18,235.79a3.34,3.34,0,0,1-2.34,3.13l-73.48,21.32L66.41,999l63.28-124.87a3.24,3.24,0,0,1,2.91-1.78l49.06.07a3.26,3.26,0,0,1,3.25,3.29l-.78,59L360,934.9l.08-59a3.28,3.28,0,0,1,2.26-3.09Z" transform="translate(164.56 -318.07)"/><path class="cls-6" d="M273.55,634a41.76,41.76,0,1,1,41.82-41.7A41.81,41.81,0,0,1,273.55,634Zm.11-79.13A37.37,37.37,0,1,0,311,592.3,37.4,37.4,0,0,0,273.66,554.88Z" transform="translate(164.56 -318.07)"/><path class="cls-6" d="M286.59,633.06a42.8,42.8,0,1,1,29.83-40.75A42.91,42.91,0,0,1,286.59,633.06Zm-25.37-79.6a40.71,40.71,0,1,0,12.44-1.92A40.52,40.52,0,0,0,261.22,553.46Zm24,75.41a38.43,38.43,0,1,1-11.6-75h0a38.43,38.43,0,0,1,11.6,75Zm-22.67-71.23a36.32,36.32,0,1,0,11.07-1.71h0A36.47,36.47,0,0,0,262.59,557.64Z" transform="translate(164.56 -318.07)"/><path class="cls-6" d="M273.22,1026.23a2.08,2.08,0,0,1-1.1-.31c-1.28-.79-31.56-19.81-32.35-54.82a65.39,65.39,0,0,1,8.78-33.83,2.2,2.2,0,0,1,1.91-1.1l22.94,0a2.16,2.16,0,0,1,.62.09l21.69,0a2.19,2.19,0,0,1,1.9,1.11,66.91,66.91,0,0,1,8.69,34.21c-.85,33.35-28.26,51.91-31.59,54a2.17,2.17,0,0,1-1.49.55Zm-21.47-85.67A60.71,60.71,0,0,0,244.16,971c.66,29.24,23.45,46.56,29.07,50.39,5.37-3.65,27.94-20.71,28.68-49.86a62.41,62.41,0,0,0-7.5-30.82l-21,0a2.16,2.16,0,0,1-.62-.09Z" transform="translate(164.56 -318.07)"/><path class="cls-6" d="M274.24,1027.13a3.5,3.5,0,0,1-1,.15h0a3.16,3.16,0,0,1-1.65-.46c-1.31-.81-32-20.14-32.86-55.69a66.43,66.43,0,0,1,8.93-34.38,3.23,3.23,0,0,1,2.82-1.63l22.94,0a3.22,3.22,0,0,1,.76.09l21.55,0a3.26,3.26,0,0,1,2.82,1.64,68.06,68.06,0,0,1,8.83,34.76c-.87,33.73-28.55,52.62-32,54.85a2.56,2.56,0,0,1-.48.33A3.11,3.11,0,0,1,274.24,1027.13Zm-1-2a1.31,1.31,0,0,0,.6-.16.85.85,0,0,0,.19-.14l.13-.09c3.09-2,30.26-20.32,31.1-53.17A65.91,65.91,0,0,0,296.7,938a1.17,1.17,0,0,0-1-.58l-22-.07a1.13,1.13,0,0,0-.32,0l-22.94,0a1.13,1.13,0,0,0-1,.58,64.29,64.29,0,0,0-8.65,33.28c.78,34.42,30.59,53.17,31.86,53.95a1.13,1.13,0,0,0,.55.15Zm0-2.51-.59-.41c-6.76-4.61-28.86-21.93-29.52-51.23a61.93,61.93,0,0,1,7.71-31l.3-.55,21.95.08a1.15,1.15,0,0,0,.33,0l21.64,0,.3.55A64,64,0,0,1,303,971.56c-.76,29.91-24.41,47.48-29.14,50.7Zm-20.85-81A59.85,59.85,0,0,0,245.21,971c.64,27.95,22.25,45.06,28,49.13,5.68-4,26.92-20.81,27.63-48.61a61.77,61.77,0,0,0-7.08-29.73l-20.39,0a3.14,3.14,0,0,1-.75-.09Z" transform="translate(164.56 -318.07)"/><path class="cls-5" d="M281.84,785.43a2.89,2.89,0,0,1-1,.14l-15.24-.07a3.16,3.16,0,0,1-3.14-3.17l.25-50.36a3.14,3.14,0,0,1,3.17-3.14l15.23.07a3.16,3.16,0,0,1,3.15,3.18L284,782.43a3.16,3.16,0,0,1-.93,2.23A3.2,3.2,0,0,1,281.84,785.43Zm-13-6.23,8.92,0,.21-44-8.91-.05Z" transform="translate(164.56 -318.07)"/><path class="cls-5" d="M280.85,816.58a3,3,0,0,1-1,.15l-15.23-.07a3.16,3.16,0,0,1-3.15-3.17l.08-16a3.16,3.16,0,0,1,3.17-3.14l15.24.07a3.21,3.21,0,0,1,2.23.94,3.14,3.14,0,0,1,.91,2.24l-.08,16a3.16,3.16,0,0,1-.93,2.23A3.21,3.21,0,0,1,280.85,816.58Zm-13-6.22,8.92,0,.05-9.64-8.92,0Z" transform="translate(164.56 -318.07)"/><ellipse class="cls-5" cx="511.38" cy="39.12" rx="4.8" ry="4.54"/><path class="cls-5" d="M609.87,456.4a22.74,22.74,0,0,1,1.4,4.89,39.13,39.13,0,0,1,.55,4.93,37.22,37.22,0,0,1-.1,4.95,23.43,23.43,0,0,1-1,5,22.77,22.77,0,0,1-1.41-4.89,37.35,37.35,0,0,1-.54-4.93,39.15,39.15,0,0,1,.1-5A23.22,23.22,0,0,1,609.87,456.4Z" transform="translate(164.56 -318.07)"/><path class="cls-5" d="M618.37,465.73a15.36,15.36,0,0,1-4,1.45,25.09,25.09,0,0,1-8,.55,15.34,15.34,0,0,1-4.11-.9,15.82,15.82,0,0,1,3.94-1.45,25.56,25.56,0,0,1,8-.54A16.21,16.21,0,0,1,618.37,465.73Z" transform="translate(164.56 -318.07)"/><path class="cls-5" d="M84.87,337.4a22.74,22.74,0,0,1,1.4,4.89,39.13,39.13,0,0,1,.55,4.93,37.22,37.22,0,0,1-.1,4.95,23.43,23.43,0,0,1-1,5,22.77,22.77,0,0,1-1.41-4.89,37.35,37.35,0,0,1-.54-4.93,39.15,39.15,0,0,1,.1-5A23.22,23.22,0,0,1,84.87,337.4Z" transform="translate(164.56 -318.07)"/><path class="cls-5" d="M93.37,346.73a15.36,15.36,0,0,1-4,1.45,25.09,25.09,0,0,1-8,.55,15.34,15.34,0,0,1-4.11-.9,15.82,15.82,0,0,1,3.94-1.45,25.56,25.56,0,0,1,8.05-.54A16.21,16.21,0,0,1,93.37,346.73Z" transform="translate(164.56 -318.07)"/><ellipse class="cls-5" cx="979.73" cy="477.42" rx="5.51" ry="5.21"/><ellipse class="cls-5" cx="220.9" cy="386.91" rx="4.8" ry="4.54"/><ellipse class="cls-5" cx="969.73" cy="4.54" rx="4.8" ry="4.54"/><path class="cls-5" d="M614.8,748.55a48.17,48.17,0,0,1-1.26,7.25q-.87,3.54-2.06,7c-.78,2.3-1.67,4.55-2.66,6.77a48.41,48.41,0,0,1-3.48,6.49,45.69,45.69,0,0,1,1.25-7.26q.87-3.54,2.06-7c.79-2.29,1.67-4.55,2.67-6.77A46.61,46.61,0,0,1,614.8,748.55Z" transform="translate(164.56 -318.07)"/><path class="cls-5" d="M624.59,766.76a51.48,51.48,0,0,1-7.61-1.11c-2.48-.54-4.93-1.19-7.36-1.93s-4.81-1.59-7.16-2.54a51.22,51.22,0,0,1-6.91-3.37,51.54,51.54,0,0,1,7.6,1.11c2.49.54,4.94,1.19,7.36,1.93s4.81,1.6,7.16,2.55A53.11,53.11,0,0,1,624.59,766.76Z" transform="translate(164.56 -318.07)"/><path class="cls-5" d="M794.8,553.55a48.17,48.17,0,0,1-1.26,7.25q-.87,3.54-2.06,7c-.78,2.3-1.67,4.55-2.66,6.77a48.41,48.41,0,0,1-3.48,6.49,45.69,45.69,0,0,1,1.25-7.26q.87-3.54,2.06-7c.79-2.29,1.67-4.55,2.67-6.77A46.61,46.61,0,0,1,794.8,553.55Z" transform="translate(164.56 -318.07)"/><path class="cls-5" d="M804.59,571.76a51.48,51.48,0,0,1-7.61-1.11c-2.48-.54-4.93-1.19-7.36-1.93s-4.81-1.59-7.16-2.54a51.22,51.22,0,0,1-6.91-3.37,51.54,51.54,0,0,1,7.6,1.11c2.49.54,4.94,1.19,7.36,1.93s4.81,1.6,7.16,2.55A53.11,53.11,0,0,1,804.59,571.76Z" transform="translate(164.56 -318.07)"/><path class="cls-5" d="M104.76,555.66a22.86,22.86,0,0,1-.57,5.08,39.13,39.13,0,0,1-3.36,9.37A23,23,0,0,1,98,574.4a22.88,22.88,0,0,1,.58-5.09,35.93,35.93,0,0,1,1.38-4.79,37.74,37.74,0,0,1,2-4.58A23.36,23.36,0,0,1,104.76,555.66Z" transform="translate(164.56 -318.07)"/><path class="cls-5" d="M109.11,567.27a15.82,15.82,0,0,1-4.18,0,24.93,24.93,0,0,1-4-.81A26.06,26.06,0,0,1,97.21,565a15.45,15.45,0,0,1-3.52-2.26,15.82,15.82,0,0,1,4.18,0,25.4,25.4,0,0,1,7.71,2.25A15.8,15.8,0,0,1,109.11,567.27Z" transform="translate(164.56 -318.07)"/><path class="cls-5" d="M447.76,615.66a22.86,22.86,0,0,1-.57,5.08,39.13,39.13,0,0,1-3.36,9.37,23,23,0,0,1-2.8,4.29,22.88,22.88,0,0,1,.58-5.09,35.93,35.93,0,0,1,1.38-4.79,37.74,37.74,0,0,1,2-4.58A23.36,23.36,0,0,1,447.76,615.66Z" transform="translate(164.56 -318.07)"/><path class="cls-5" d="M452.11,627.27a15.82,15.82,0,0,1-4.18,0,24.93,24.93,0,0,1-3.95-.81,26.06,26.06,0,0,1-3.77-1.43,15.45,15.45,0,0,1-3.52-2.26,15.82,15.82,0,0,1,4.18,0,25.4,25.4,0,0,1,7.71,2.25A15.8,15.8,0,0,1,452.11,627.27Z" transform="translate(164.56 -318.07)"/></g></g></svg>