<svg id="Layer_1" data-name="Layer 1" xmlns="http://www.w3.org/2000/svg" xmlns:xlink="http://www.w3.org/1999/xlink" viewBox="0 0 888 710.21">
  <defs>
    <clipPath id="clip-path">
      <rect y="-45.86" width="888" height="772" fill="none"/>
    </clipPath>
  </defs>
  <title>loArtboard 1</title>
  <g id="Layer_2" data-name="Layer 2">
    <g id="Formulario">
      <g clip-path="url(#clip-path)">
        <path d="M1755.44,558.93c-26.27-17-59.33-16.41-82,1-25.37,19.48-26,51-26,55-1.67-.38-17.51-3.7-30.5,7.5-12,10.39-12,25-12,27-2-2.37-14.49-17-36-18-21.07-1-34.75,11.82-37,14-.3-1.95-6.33-36.44-39-50-29.92-12.43-56.42,3.39-59,5-5.42-14.13-19.56-22.31-33-20-10.65,1.83-19.55,10-23,21-16.85-11.36-38.32-12.94-56-4-23.33,11.79-28.43,36-29,39a42.61,42.61,0,0,0-80-4,49.27,49.27,0,0,0-33-1c-18.29,6-26.4,20.91-28,24-.23-1.27-4.11-20.85-21-27a30.85,30.85,0,0,0-17-1c2.62-21.53-7.82-42.25-26-52-23.6-12.67-47.38.09-49,1,4.79-18.53-.11-37.78-13-49-17.77-15.48-48.81-14-69,7-3.78-1.22-21.71-6.54-40,3a51,51,0,0,0-20,19,42.85,42.85,0,0,0-53,24c-4-5.92-34.86-50.18-92-55-44.11-3.73-87.31,17.45-113,55-3.77-1.81-47.89-22-91,3-36.59,21.25-44.81,59.06-46,65-.64-1.24-9.27-17.34-27-19a33.65,33.65,0,0,0-22,6c20.09-40.52,4.43-89-32-109-39.7-21.81-94-4.26-114,41-26.08-16.11-58.33-16.09-82,0-26.55,18-30.46,48.24-31,53-1.36-.49-14.33-4.92-26,3-9.17,6.22-13.87,17.58-12,29-2.14-2.33-19.38-20.37-45-18a53.76,53.76,0,0,0-31,14,57,57,0,0,0-34-54,57,57,0,0,0-62,11,32,32,0,0,0-31-28,32,32,0,0,0-32,28,48.38,48.38,0,0,0-49-12,48.48,48.48,0,0,0-33,43,808,808,0,0,1,61-211" fill="none" stroke="#1f1646" stroke-linecap="round" stroke-linejoin="round" stroke-width="7"/>
      </g>
      <g>
        <rect x="267.5" y="484.05" width="9.65" height="8.92" transform="translate(-217.51 758.44) rotate(-89.72)" fill="#ece9f2"/>
        <path d="M361,556.52a3.25,3.25,0,0,1,1.28-.78,3.37,3.37,0,0,1,1-.15l49.8.8a3.22,3.22,0,0,1,2.92,1.75l63.75,124.13-40-219.58-79.26-20.83a3.23,3.23,0,0,1-2.49-3.12L356.88,202,273,110.14l-90.5,91.47.18,235.79a3.31,3.31,0,0,1-2.34,3.12l-73.48,21.32L66.41,681.9,129.69,557a3.22,3.22,0,0,1,2.91-1.78l49.06.07a3.26,3.26,0,0,1,3.25,3.27v0l-.78,59,175.82.25.08-59A3.29,3.29,0,0,1,361,556.52Zm-78-60a3.16,3.16,0,0,1-3.17,3.14l-15.24-.07a3.15,3.15,0,0,1-3.14-3.18h0l.08-16a3.16,3.16,0,0,1,3.17-3.14l15.24.07a3.17,3.17,0,0,1,2.23.94,3.12,3.12,0,0,1,.91,2.24Zm1-31.16a3.16,3.16,0,0,1-3.17,3.14l-15.24-.07a3.15,3.15,0,0,1-3.14-3.18h0l.25-50.35a3.15,3.15,0,0,1,3.14-3.14h0l15.23.07a3.15,3.15,0,0,1,3.15,3.17h0Zm32.42-190.12a42.79,42.79,0,1,1-2-13A42.89,42.89,0,0,1,316.42,275.24Z" fill="#ece9f2"/>
        <rect x="251.38" y="435.69" width="44.04" height="8.92" transform="translate(-168.08 711.39) rotate(-89.72)" fill="#ece9f2"/>
        <path d="M273.23,703c5.68-4,26.92-20.81,27.63-48.61a61.8,61.8,0,0,0-7.08-29.74H273.39a3.82,3.82,0,0,1-.75-.08H252.37A59.76,59.76,0,0,0,245.21,654C245.85,681.86,267.46,699,273.23,703Z" fill="#ece9f2"/>
        <path d="M273.66,238.86a35.85,35.85,0,0,0-11.07,1.71,36.32,36.32,0,1,0,11.07-1.71Z" fill="#ece9f2"/>
        <path d="M180.84,622a1.15,1.15,0,0,1-.82-.34,1.18,1.18,0,0,1-.33-.82l.81-61.09-47.21-.06L60.17,703.93a1.14,1.14,0,0,1-1,.63h0a1.15,1.15,0,0,1-.37-.06,1.13,1.13,0,0,1-.75-1.29L102.9,459.07a1.18,1.18,0,0,1,.81-.89l74.58-21.64-.19-236.26a1.18,1.18,0,0,1,.33-.81l93.87-94.9a1.15,1.15,0,0,1,.84-.33,1.12,1.12,0,0,1,.82.37l87,95.33a1.12,1.12,0,0,1,.3.76l1.14,237.14L442.81,459a1.16,1.16,0,0,1,.83.91L488,703.08a1.15,1.15,0,0,1-.75,1.29h0a1.17,1.17,0,0,1-1.37-.57l-73.45-143L364.48,560l-.14,61.11a1.14,1.14,0,0,1-1.14,1.14h0l-63.42-.14c.18.34.35.69.53,1l62.89.09a2.19,2.19,0,0,0,2.2-2.18h0l.09-60,46.25.75,73.16,142.47a2.2,2.2,0,0,0,4.12-1.4l-44.33-243.2a2.2,2.2,0,0,0-1.6-1.73L363.45,437l-1.12-236.33a2.23,2.23,0,0,0-.58-1.47l-87-95.33a2.2,2.2,0,0,0-3.11-.15l-.08.08-93.87,94.9a2.25,2.25,0,0,0-.63,1.55l.19,235.47-73.84,21.42a2.19,2.19,0,0,0-1.55,1.71L57,703a2.18,2.18,0,0,0,1.46,2.47,2.1,2.1,0,0,0,.7.12,2.19,2.19,0,0,0,2-1.2L134,560.71l45.49.06-.79,60a2.19,2.19,0,0,0,.63,1.57,2.26,2.26,0,0,0,1.57.66l65,.09.54-1.05Z" fill="#1f1646"/>
        <path d="M248.47,618.73l-65.4-.1.79-60a2.22,2.22,0,0,0-2.2-2.23l-49.06-.07a2.22,2.22,0,0,0-2,1.21L64.06,688.87,105.94,461l74.11-21.5a2.19,2.19,0,0,0,1.58-2.11l-.19-236.26,91.61-92.61,84.89,93,1.12,237.17a2.19,2.19,0,0,0,1.64,2.11l79.91,21L482,689.14l-67-130.5a2.2,2.2,0,0,0-1.92-1.2l-49.8-.8a2.21,2.21,0,0,0-1.58.63,2.17,2.17,0,0,0-.65,1.56L361,618.89l-63.43-.09a3.18,3.18,0,0,1,1,1h0l62.46.09h1.05l.09-61.11a1.13,1.13,0,0,1,.34-.81,1.14,1.14,0,0,1,.82-.33l49.8.8a1.15,1.15,0,0,1,1,.63l70.24,136.77L441.52,461,361,439.83a1.14,1.14,0,0,1-.86-1.1L359,201.56v-.42L273.08,107l-92.38,93.4-.31.3.19,236.66a1.15,1.15,0,0,1-.8,1.09h0L105.68,460l-.68.15L61.71,695.84,131.57,558a1.12,1.12,0,0,1,1-.62l49.07.06a1.12,1.12,0,0,1,.81.35,1.08,1.08,0,0,1,.33.81l-.8,61.1,65.58.09.06-.1A3,3,0,0,1,248.47,618.73Z" fill="#1f1646"/>
        <path d="M273.66,236.75A38.43,38.43,0,1,0,312,275.27v0A38.47,38.47,0,0,0,273.66,236.75ZM311,275.23a37.37,37.37,0,1,1-37.32-37.42A37.37,37.37,0,0,1,311,275.23Z" fill="#1f1646"/>
        <path d="M273.66,233.41a41.77,41.77,0,1,0,41.71,41.83A41.77,41.77,0,0,0,273.66,233.41Zm40.66,41.82a40.75,40.75,0,1,1-11.9-28.79A40.75,40.75,0,0,1,314.32,275.23Z" fill="#1f1646"/>
        <path d="M295.71,620.3l-22-.07a1.13,1.13,0,0,0-.32-.05H250.45a1.15,1.15,0,0,0-1,.57l-.75,1.35,48.67.07q-.36-.67-.69-1.26A1.14,1.14,0,0,0,295.71,620.3Z" fill="#1f1646"/>
        <path d="M295.92,624.24h2.55c-.17-.37-.35-.72-.52-1.06h-2.59Z" fill="#1f1646"/>
        <path d="M250.75,623.14h-2.59c-.18.34-.35.69-.53,1h2.56Z" fill="#1f1646"/>
        <path d="M248.87,619.78h-1.29c-.41.72-.82,1.49-1.24,2.29h1.19c.34-.65.68-1.28,1-1.87A2.72,2.72,0,0,1,248.87,619.78Z" fill="#1f1646"/>
        <path d="M297.2,619.85a2.24,2.24,0,0,1,.41.51c.31.54.64,1.14,1,1.78h1.19c-.43-.84-.85-1.61-1.23-2.29Z" fill="#1f1646"/>
        <path d="M274.16,618.14a3.84,3.84,0,0,0-.76-.08H250.46a3.21,3.21,0,0,0-2,.69l49.1.07a3.17,3.17,0,0,0-1.86-.6Z" fill="#1f1646"/>
        <path d="M294.41,623.64h-21a2.16,2.16,0,0,1-.62-.09h-21c-.13.22-.25.46-.37.69l43.34.06Z" fill="#1f1646"/>
        <path d="M299.13,623.19l.52,1.06h1.16c-.17-.37-.34-.71-.51-1.06Z" fill="#1f1646"/>
        <path d="M247,623.14h-1.2c-.17.34-.35.69-.52,1h1.17C246.63,623.82,246.8,623.46,247,623.14Z" fill="#1f1646"/>
        <path d="M301.91,654.46c-.74,29.15-23.31,46.21-28.68,49.86-5.62-3.83-28.41-21.15-29.07-50.39a60.57,60.57,0,0,1,7.22-29.79h-1.19a61.76,61.76,0,0,0-7.08,29.78c.66,29.3,22.76,46.62,29.52,51.23l.6.4.59-.4c4.73-3.22,28.38-20.79,29.14-50.71a63.79,63.79,0,0,0-7-30.24h-1.2A62.13,62.13,0,0,1,301.91,654.46Z" fill="#1f1646"/>
        <path d="M305.25,654.54c-.84,32.85-28,51.19-31.1,53.18l-.13.09a.8.8,0,0,1-.19.13,1.16,1.16,0,0,1-.6.17,1,1,0,0,1-.55-.16c-1.27-.78-31.08-19.52-31.86-53.94a63.69,63.69,0,0,1,6.81-29.87h-1.18A64.78,64.78,0,0,0,239.77,654c.79,35,31.07,54,32.35,54.82a2.12,2.12,0,0,0,1.1.31,2.22,2.22,0,0,0,1.13-.3,1.83,1.83,0,0,0,.36-.26c3.33-2.12,30.74-20.68,31.59-54a66.42,66.42,0,0,0-6.65-30.32h-1.18A65.29,65.29,0,0,1,305.25,654.54Z" fill="#1f1646"/>
        <path d="M274,619.22a2.16,2.16,0,0,0-.62-.09H250.44a2.17,2.17,0,0,0-1.59.68l48.33.07a2.16,2.16,0,0,0-1.49-.6Z" fill="#1f1646"/>
        <path d="M297.39,622.14l.56,1h1.18l-.55-1Z" fill="#1f1646"/>
        <path d="M248.72,622.07h-1.19c-.19.34-.37.69-.56,1h1.19C248.35,622.77,248.53,622.41,248.72,622.07Z" fill="#1f1646"/>
        <path d="M295.34,623.14l-.3-.55H273.39a.86.86,0,0,1-.32,0l-21.95-.07-.3.55-.07.13,44.61.07Z" fill="#1f1646"/>
        <g>
          <g>
            <g>
              <path d="M59.15,705.61a2.1,2.1,0,0,1-.7-.12A2.19,2.19,0,0,1,57,703l44.87-244.14a2.19,2.19,0,0,1,1.55-1.71l73.83-21.42-.19-235.47a2.25,2.25,0,0,1,.63-1.55l93.87-94.9a2.2,2.2,0,0,1,3.11,0l.08.08,87,95.33a2.23,2.23,0,0,1,.58,1.47L363.45,437,443.08,458a2.2,2.2,0,0,1,1.6,1.73L489,702.89a2.2,2.2,0,0,1-4.12,1.4L411.73,561.82l-46.25-.75-.09,60a2.19,2.19,0,0,1-2.19,2.19h0L180.84,623a2.26,2.26,0,0,1-1.57-.66,2.19,2.19,0,0,1-.63-1.57l.79-60-45.49-.06L61.11,704.41A2.2,2.2,0,0,1,59.15,705.61ZM105.94,461,64.06,688.87l66.57-131.35a2.22,2.22,0,0,1,2-1.21l49.07.07a2.22,2.22,0,0,1,2.2,2.23l-.79,60,177.93.26.09-60.06a2.17,2.17,0,0,1,.65-1.56,2.21,2.21,0,0,1,1.58-.63l49.8.8a2.2,2.2,0,0,1,1.92,1.2L482,689.14,440.61,461.85l-79.91-21a2.19,2.19,0,0,1-1.64-2.11l-1.12-237.17-84.89-93-91.61,92.57.19,236.22a2.19,2.19,0,0,1-1.58,2.11Z" fill="#1f1646"/>
              <path d="M487.83,706.38a3.27,3.27,0,0,1-3.87-1.61L411.08,562.86l-44.55-.72-.08,59a3.26,3.26,0,0,1-3.26,3.25l-182.36-.26a3.24,3.24,0,0,1-3.24-3.24v0l.78-59-43.78-.07L62.05,704.88a3.25,3.25,0,0,1-6.15-1.47,3.79,3.79,0,0,1,.05-.58l44.88-244.14a3.3,3.3,0,0,1,2.29-2.53L176.18,435,176,200.28a3.18,3.18,0,0,1,.94-2.29l93.86-94.85a3.26,3.26,0,0,1,4.6,0l.11.12,87,95.33a3.28,3.28,0,0,1,.85,2.17l1.12,235.53L443.32,457a3.27,3.27,0,0,1,2.38,2.56L490,702.7a3.26,3.26,0,0,1-2.15,3.66ZM364.43,560l47.95.77,73.45,143a1.17,1.17,0,0,0,1.37.57h0a1.15,1.15,0,0,0,.75-1.29l-44.33-243.2a1.16,1.16,0,0,0-.83-.91l-80.39-21.1L361.27,200.7a1.12,1.12,0,0,0-.3-.76l-87-95.33a1.12,1.12,0,0,0-.82-.37,1.15,1.15,0,0,0-.84.33l-93.87,94.9a1.18,1.18,0,0,0-.33.81l.19,236.26-74.59,21.6a1.18,1.18,0,0,0-.81.89L58,703.21a1.13,1.13,0,0,0,.75,1.29,1.15,1.15,0,0,0,.37.06h0a1.14,1.14,0,0,0,1-.63l73.12-144.27,47.21.06-.81,61.09a1.18,1.18,0,0,0,.33.82,1.15,1.15,0,0,0,.82.34l182.35.26a1.14,1.14,0,0,0,1.15-1.13h0ZM484.34,695.89,414.1,559.14a1.15,1.15,0,0,0-1-.63l-49.8-.8a1.14,1.14,0,0,0-.82.33,1.13,1.13,0,0,0-.34.81L362.05,620H361l-179-.25.8-61.1a1.08,1.08,0,0,0-.33-.81,1.12,1.12,0,0,0-.81-.35l-49.07-.06a1.12,1.12,0,0,0-1,.62L61.71,695.84,105,460.14l.63-.18,74.1-21.5h0a1.15,1.15,0,0,0,.8-1.09l-.19-236.66.31-.3L273,107l86,94.13v.41l1.12,237.17a1.16,1.16,0,0,0,.86,1.1L441.53,461Zm-122-140.15a3.37,3.37,0,0,1,1-.15l49.8.8a3.25,3.25,0,0,1,2.86,1.75l63.75,124.13-40-219.58-79.26-20.83a3.23,3.23,0,0,1-2.49-3.12L356.88,202,273,110.14l-90.5,91.47.18,235.79a3.31,3.31,0,0,1-2.34,3.12l-73.48,21.32L66.41,681.9,129.69,557a3.22,3.22,0,0,1,2.91-1.78l49.06.07a3.26,3.26,0,0,1,3.25,3.27v0l-.78,59,175.82.25.08-59a3.28,3.28,0,0,1,2.26-3.09Z" fill="#1f1646"/>
            </g>
            <g>
              <path d="M273.55,316.94a41.77,41.77,0,1,1,41.82-41.72v0A41.81,41.81,0,0,1,273.55,316.94Zm.11-79.13A37.37,37.37,0,1,0,311,275.23a37.37,37.37,0,0,0-37.34-37.42Z" fill="#261d44"/>
              <path d="M286.59,316a42.79,42.79,0,1,1,29.83-40.74A42.79,42.79,0,0,1,286.59,316Zm-25.37-79.6a40.8,40.8,0,1,0,12.44-1.91A40.78,40.78,0,0,0,261.22,236.38Zm24,75.41a38.43,38.43,0,1,1-11.6-75h0a38.43,38.43,0,0,1,11.6,75Zm-22.67-71.22a36.32,36.32,0,1,0,11.07-1.71h0a35.9,35.9,0,0,0-11,1.71Z" fill="#261d44"/>
            </g>
            <g>
              <path d="M273.22,709.14a2.12,2.12,0,0,1-1.1-.31C270.84,708,240.56,689,239.77,654a65.39,65.39,0,0,1,8.78-33.83,2.2,2.2,0,0,1,1.91-1.1H273.4a2.16,2.16,0,0,1,.62.09h21.69a2.16,2.16,0,0,1,1.9,1.11,66.84,66.84,0,0,1,8.69,34.21c-.85,33.35-28.26,51.91-31.59,54a1.83,1.83,0,0,1-.36.26A2.32,2.32,0,0,1,273.22,709.14Zm-21.47-85.67a60.75,60.75,0,0,0-7.59,30.44c.66,29.24,23.45,46.56,29.07,50.39,5.37-3.65,27.94-20.71,28.68-49.86a62.4,62.4,0,0,0-7.5-30.82h-21a2.16,2.16,0,0,1-.62-.09Z" fill="#261d44"/>
              <path d="M274.24,710.05a3.08,3.08,0,0,1-1,.16h0a3.21,3.21,0,0,1-1.65-.46c-1.31-.81-32-20.14-32.86-55.69a66.45,66.45,0,0,1,8.93-34.38,3.25,3.25,0,0,1,2.82-1.64h22.94a3.84,3.84,0,0,1,.76.08h21.55a3.25,3.25,0,0,1,2.82,1.64,68,68,0,0,1,8.83,34.76c-.87,33.73-28.55,52.62-32,54.85a2.56,2.56,0,0,1-.48.33A3.48,3.48,0,0,1,274.24,710.05Zm-1-1.94a1.16,1.16,0,0,0,.6-.17.8.8,0,0,0,.19-.13l.13-.09c3.09-2,30.26-20.33,31.1-53.18a65.89,65.89,0,0,0-8.55-33.66,1.15,1.15,0,0,0-1-.58l-22-.07a1.13,1.13,0,0,0-.32-.05H250.45a1.15,1.15,0,0,0-1,.57A64.36,64.36,0,0,0,240.8,654c.78,34.42,30.59,53.16,31.86,53.94a1,1,0,0,0,.55.16Zm0-2.52-.59-.4c-6.76-4.61-28.86-21.93-29.52-51.23a61.84,61.84,0,0,1,7.71-31l.3-.55,21.95.07a.92.92,0,0,0,.33,0h21.64l.3.55A64,64,0,0,1,303,654.49c-.76,29.91-24.41,47.48-29.14,50.7Zm-20.85-81A59.76,59.76,0,0,0,245.23,654c.64,28,22.25,45.06,28,49.13,5.68-4,26.92-20.81,27.63-48.61a61.8,61.8,0,0,0-7.08-29.74H273.39a3.82,3.82,0,0,1-.75-.08Z" fill="#261d44"/>
            </g>
          </g>
          <g>
            <path d="M281.84,468.35a3.37,3.37,0,0,1-1,.15l-15.24-.07a3.15,3.15,0,0,1-3.14-3.18h0l.25-50.35a3.15,3.15,0,0,1,3.14-3.14h0l15.23.07a3.15,3.15,0,0,1,3.15,3.17h0L284,465.36a3.12,3.12,0,0,1-2.2,3Zm-13-6.22h8.92l.21-44h-9Z" fill="#1f1646"/>
            <path d="M280.85,499.51a3.37,3.37,0,0,1-1,.15l-15.23-.07a3.15,3.15,0,0,1-3.15-3.17h0l.08-16a3.16,3.16,0,0,1,3.17-3.14l15.24.07a3.17,3.17,0,0,1,2.23.94,3.12,3.12,0,0,1,.91,2.24l-.08,16a3.16,3.16,0,0,1-.93,2.23A3.3,3.3,0,0,1,280.85,499.51Zm-13-6.22h8.92l.05-9.65H267.9Z" fill="#1f1646"/>
          </g>
        </g>
      </g>
      <g>
        <ellipse cx="346.82" cy="39.12" rx="4.8" ry="4.54" fill="#1f1646"/>
        <g>
          <path d="M609.87,138.32a22.42,22.42,0,0,1,1.4,4.89,38.93,38.93,0,0,1,.55,4.93,37.91,37.91,0,0,1-.1,5,23,23,0,0,1-1,5,23,23,0,0,1-1.41-4.89,37.16,37.16,0,0,1-.54-4.93,39.71,39.71,0,0,1,.1-5A23.7,23.7,0,0,1,609.87,138.32Z" fill="#1f1646"/>
          <path d="M618.37,147.66a15.84,15.84,0,0,1-4,1.45,27,27,0,0,1-4,.6,24.28,24.28,0,0,1-4,0,16,16,0,0,1-4.1-.9,15.81,15.81,0,0,1,3.94-1.45,24.6,24.6,0,0,1,4-.6,28.11,28.11,0,0,1,4,.05A16,16,0,0,1,618.37,147.66Z" fill="#1f1646"/>
        </g>
        <g>
          <path d="M84.87,19.32a22.42,22.42,0,0,1,1.4,4.89,38.93,38.93,0,0,1,.55,4.93,37.91,37.91,0,0,1-.1,5,23,23,0,0,1-1,5,23,23,0,0,1-1.41-4.89,37.16,37.16,0,0,1-.54-4.93,39.71,39.71,0,0,1,.1-5A23.7,23.7,0,0,1,84.87,19.32Z" fill="#1f1646"/>
          <path d="M93.37,28.66a15.84,15.84,0,0,1-4,1.45,27,27,0,0,1-4,.6,24.28,24.28,0,0,1-4,0,16,16,0,0,1-4.1-.9,15.81,15.81,0,0,1,3.94-1.45,24.44,24.44,0,0,1,4-.6,28.11,28.11,0,0,1,4,0A16,16,0,0,1,93.37,28.66Z" fill="#1f1646"/>
        </g>
        <ellipse cx="815.17" cy="477.42" rx="5.51" ry="5.21" fill="#1f1646"/>
        <ellipse cx="56.34" cy="386.91" rx="4.8" ry="4.54" fill="#1f1646"/>
        <ellipse cx="805.17" cy="4.54" rx="4.8" ry="4.54" fill="#1f1646"/>
        <g>
          <path d="M614.8,430.47a46.91,46.91,0,0,1-1.26,7.26q-.87,3.54-2.06,7c-.79,2.31-1.68,4.56-2.66,6.77a47,47,0,0,1-3.48,6.48,45.61,45.61,0,0,1,1.25-7.25q.87-3.54,2.06-7c.79-2.29,1.67-4.55,2.67-6.77A47.06,47.06,0,0,1,614.8,430.47Z" fill="#1f1646"/>
          <path d="M624.59,448.69a52.88,52.88,0,0,1-7.61-1.11c-2.48-.54-4.93-1.19-7.36-1.93s-4.81-1.59-7.16-2.55a52.45,52.45,0,0,1-6.91-3.36,51.19,51.19,0,0,1,7.6,1.11c2.49.53,4.94,1.18,7.36,1.93s4.81,1.59,7.16,2.55A52,52,0,0,1,624.59,448.69Z" fill="#1f1646"/>
        </g>
        <g>
          <path d="M794.8,235.47a46.91,46.91,0,0,1-1.26,7.26q-.87,3.54-2.06,7c-.79,2.31-1.68,4.56-2.66,6.77a47,47,0,0,1-3.48,6.48,45.61,45.61,0,0,1,1.25-7.25q.87-3.54,2.06-7c.79-2.29,1.67-4.55,2.67-6.77A47.06,47.06,0,0,1,794.8,235.47Z" fill="#1f1646"/>
          <path d="M804.59,253.69a52.88,52.88,0,0,1-7.61-1.11c-2.48-.54-4.93-1.19-7.36-1.93s-4.81-1.59-7.16-2.55a52.45,52.45,0,0,1-6.91-3.36,51.19,51.19,0,0,1,7.6,1.11c2.49.53,4.94,1.18,7.36,1.93s4.81,1.59,7.16,2.55A52,52,0,0,1,804.59,253.69Z" fill="#1f1646"/>
        </g>
        <g>
          <path d="M104.76,237.58a23,23,0,0,1-.57,5.09,39.56,39.56,0,0,1-3.36,9.37,22.85,22.85,0,0,1-2.8,4.28,22.88,22.88,0,0,1,.58-5.08,35.93,35.93,0,0,1,1.38-4.79,36.48,36.48,0,0,1,2-4.58A24.18,24.18,0,0,1,104.76,237.58Z" fill="#1f1646"/>
          <path d="M109.11,249.2a16.25,16.25,0,0,1-4.18,0,24.9,24.9,0,0,1-4-.82A24.16,24.16,0,0,1,97.16,247a15.49,15.49,0,0,1-3.52-2.25,15.4,15.4,0,0,1,4.18,0,24.43,24.43,0,0,1,7.71,2.25A15.86,15.86,0,0,1,109.11,249.2Z" fill="#1f1646"/>
        </g>
        <g>
          <path d="M447.76,297.58a23,23,0,0,1-.57,5.09,39.56,39.56,0,0,1-3.36,9.37,22.85,22.85,0,0,1-2.8,4.28,22.88,22.88,0,0,1,.58-5.08,35.93,35.93,0,0,1,1.38-4.79,36.48,36.48,0,0,1,2-4.58A24.18,24.18,0,0,1,447.76,297.58Z" fill="#1f1646"/>
          <path d="M452.11,309.2a16.25,16.25,0,0,1-4.18,0,25.18,25.18,0,0,1-3.95-.82,24.16,24.16,0,0,1-3.77-1.43,15.49,15.49,0,0,1-3.52-2.25,15.4,15.4,0,0,1,4.18,0,24.43,24.43,0,0,1,7.71,2.25A15.9,15.9,0,0,1,452.11,309.2Z" fill="#1f1646"/>
        </g>
      </g>
    </g>
  </g>
</svg>
