<svg xmlns="http://www.w3.org/2000/svg" xmlns:xlink="http://www.w3.org/1999/xlink" viewBox="0 0 2251.5 629"><defs><style>.cls-1,.cls-5{fill:none;}.cls-2{fill:#1f1646;}.cls-3{fill:#261d44;}.cls-4{clip-path:url(#clip-path);}.cls-5{stroke:#1f1646;stroke-linecap:round;stroke-linejoin:round;stroke-width:5px;}</style><clipPath id="clip-path" transform="translate(210 -349)"><rect class="cls-1" width="1920" height="1080"/></clipPath></defs><g id="Layer_2" data-name="Layer 2"><g id="Layer_1-2" data-name="Layer 1"><path class="cls-2" d="M35.16,669.81a1.2,1.2,0,0,1-.39-.2,1.37,1.37,0,0,1-.4-1.77l73.55-137.7a1.36,1.36,0,0,1,1.26-.73l48.33,1.27L202.4,389.55a1.4,1.4,0,0,1,.68-.81l74.39-38.92a1.36,1.36,0,0,1,1.08-.08,1.39,1.39,0,0,1,.81.73l33.92,73.76a1.35,1.35,0,0,1,.06,1L268.84,567l43.71,27.76a1.37,1.37,0,0,1,.63,1.35l-19.92,154.2a1.39,1.39,0,0,1-2.74,0L273.92,651l-27.57-9.28L234.82,677.7a1.38,1.38,0,0,1-1.73.9l-109.22-35a1.44,1.44,0,0,1-.82-.69,1.42,1.42,0,0,1-.07-1.07L134.92,606l-27.24-8.74L36.57,669.46A1.38,1.38,0,0,1,35.16,669.81ZM110,532.19,41.3,660.72l65-66a1.35,1.35,0,0,1,1.4-.35l29.39,9.42a1.38,1.38,0,0,1,.81.69,1.35,1.35,0,0,1,.08,1.06l-12,35.82,106.57,34.16,11.53-36a1.37,1.37,0,0,1,.7-.81,1.35,1.35,0,0,1,1.06-.08l29.69,10a1.39,1.39,0,0,1,.92,1.08l15.2,91,18.62-144.08-43.87-27.85a1.4,1.4,0,0,1-.58-1.58L310.55,424.9,277.46,353l-72.59,38L159.82,532.51a1.36,1.36,0,0,1-1.35,1Z" transform="translate(210 -349)"/><path class="cls-2" d="M291.89,752.22a2.06,2.06,0,0,1-2-1.71l-16.54-99-26.56-8.94-11.32,35.31a2,2,0,0,1-1,1.19,2,2,0,0,1-1.56.13l-109.22-35a2,2,0,0,1-1.31-2.6l11.73-35.18L107.86,598,37,669.93a2,2,0,0,1-2.08.51,2.19,2.19,0,0,1-.59-.3,2.06,2.06,0,0,1-.59-2.61l73.56-137.71a2.09,2.09,0,0,1,1.85-1.08L157,530l44.74-140.66a2,2,0,0,1,1-1.19l74.39-38.92a2,2,0,0,1,1.62-.12A2,2,0,0,1,280,350.2L313.88,424a2.07,2.07,0,0,1,.1,1.47L269.62,566.76l43.29,27.48a2.06,2.06,0,0,1,.93,2l-19.93,154.2a2.05,2.05,0,0,1-2,1.79Zm-46-111.31,28.59,9.63,16.67,99.75a.72.72,0,0,0,.71.6h0a.71.71,0,0,0,.7-.63l19.93-154.2a.75.75,0,0,0-.33-.7l-44.14-28L312.71,425a.78.78,0,0,0,0-.52l-33.92-73.75a.73.73,0,0,0-1-.34l-74.38,38.92a.69.69,0,0,0-.35.42L158,531.36l-48.83-1.29a.73.73,0,0,0-.66.38L35,668.15a.72.72,0,0,0,.21.92.53.53,0,0,0,.21.11h0a.73.73,0,0,0,.73-.18l71.39-72.47,28.27,9.06L123.6,642a.73.73,0,0,0,.05.56.71.71,0,0,0,.42.36l109.22,35a.72.72,0,0,0,.9-.47ZM291.8,745.26l-15.94-95.38a.72.72,0,0,0-.48-.56l-29.69-10a.69.69,0,0,0-.56,0,.71.71,0,0,0-.36.42L233,676.38l-.63-.21L125.2,641.81l12.16-36.46a.7.7,0,0,0,0-.55.74.74,0,0,0-.42-.36L107.51,595a.73.73,0,0,0-.73.18L38.56,664.45l71-132.93H110l48.52,1.28h0a.71.71,0,0,0,.68-.5l45.13-141.84.24-.13L277.77,352l33.48,72.81-.07.25L266.52,567.43a.71.71,0,0,0,.3.82L311,596.33ZM245.46,638a2.06,2.06,0,0,1,.65.11l29.69,10a2,2,0,0,1,1.36,1.6l14.47,86.56,18-139.22-43.51-27.63a2.06,2.06,0,0,1-.86-2.34l44.59-142.09-32.69-71.08-71.74,37.53L160.46,532.71a2.12,2.12,0,0,1-2,1.43l-48.1-1.28L44.05,657l61.78-62.72a2,2,0,0,1,2.08-.51l29.39,9.42a2,2,0,0,1,1.32,2.59L126.88,641l105.3,33.76,11.33-35.34a2.06,2.06,0,0,1,2-1.42Z" transform="translate(210 -349)"/><path class="cls-3" d="M237.93,477.9a26.27,26.27,0,1,1,33-17A26.29,26.29,0,0,1,237.93,477.9Zm15.19-47.4a23.51,23.51,0,1,0,15.21,29.56A23.54,23.54,0,0,0,253.12,430.5Z" transform="translate(210 -349)"/><path class="cls-3" d="M245.93,479.82a27,27,0,0,1-8.21-1.29,26.92,26.92,0,1,1,33.87-17.42A27,27,0,0,1,245.93,479.82Zm0-52.55a25.61,25.61,0,1,0,7.82,1.23A25.46,25.46,0,0,0,245.94,427.27Zm0,49.79a24.17,24.17,0,1,1,7.39-47.19h0a24.17,24.17,0,0,1-7.39,47.19Zm0-47a22.84,22.84,0,1,0,7,1.09h0A22.81,22.81,0,0,0,246,430Z" transform="translate(210 -349)"/><path class="cls-3" d="M162.76,712.86a1.35,1.35,0,0,1-.6-.4c-.62-.72-15.12-17.9-8.91-39A41.08,41.08,0,0,1,165,654.84a1.38,1.38,0,0,1,1.36-.3l13.73,4.4a1.52,1.52,0,0,1,.36.18l13,4.16a1.39,1.39,0,0,1,.93,1A42.09,42.09,0,0,1,193,686.47c-6.89,19.82-26.86,25.7-29.26,26.34a1.43,1.43,0,0,1-.27.09A1.5,1.5,0,0,1,162.76,712.86Zm3.51-55.44a38.18,38.18,0,0,0-10.37,16.79c-5.19,17.64,5.15,32.38,7.79,35.75,3.92-1.16,20.7-7.07,26.72-24.4a39.23,39.23,0,0,0,1.39-19.9l-12.59-4a1.62,1.62,0,0,1-.35-.17Z" transform="translate(210 -349)"/><path class="cls-3" d="M163.2,713.59a2.25,2.25,0,0,1-.64-.1h0a2,2,0,0,1-.9-.6c-.63-.73-15.36-18.19-9-39.65a41.87,41.87,0,0,1,11.92-18.89,2.08,2.08,0,0,1,2-.44l13.74,4.4a2.11,2.11,0,0,1,.43.2l12.91,4.14a2.06,2.06,0,0,1,1.38,1.52,42.87,42.87,0,0,1-1.36,22.52c-7,20-27.16,26.07-29.67,26.75a2.46,2.46,0,0,1-.77.15Zm-.24-1.36a.9.9,0,0,0,.4,0l.14,0,.09,0c2.23-.6,22-6.39,28.8-25.92a41.33,41.33,0,0,0,1.31-21.8.73.73,0,0,0-.48-.54l-13.16-4.25-.19-.09-13.74-4.4a.7.7,0,0,0-.7.16,40.44,40.44,0,0,0-11.55,18.29c-6.11,20.77,8.17,37.7,8.78,38.41a.69.69,0,0,0,.3.2Zm.48-1.51-.28-.35c-3.16-4.06-13.1-18.66-7.89-36.35a39,39,0,0,1,10.54-17.08l.28-.27,13.14,4.24a.66.66,0,0,0,.19.09l13,4.15.07.39A40.09,40.09,0,0,1,191,685.78c-6.17,17.78-23.7,23.79-27.16,24.81Zm3-52.55a37.54,37.54,0,0,0-9.9,16.23c-5,16.87,4.72,31.25,7.39,34.79,4.17-1.31,20.11-7.32,25.85-23.84a38.83,38.83,0,0,0,1.44-19.18L179,662.26a2.11,2.11,0,0,1-.43-.2Z" transform="translate(210 -349)"/><path class="cls-2" d="M214,570.21a2.16,2.16,0,0,1-.62-.09l-9.11-3a2,2,0,0,1-1.28-2.5l9.77-30.13a2,2,0,0,1,1-1.15,2,2,0,0,1,1.52-.13l9.11,3a2,2,0,0,1,1.28,2.5l-9.77,30.13a2,2,0,0,1-1.89,1.37ZM207.34,564l5.34,1.73,8.54-26.34-5.33-1.73Z" transform="translate(210 -349)"/><path class="cls-2" d="M207.4,588.69a2.1,2.1,0,0,1-.61-.09l-9.12-3a2,2,0,0,1-1.27-2.5l3.09-9.55a2,2,0,0,1,2.51-1.28l9.11,3a2,2,0,0,1,1.16,1,2,2,0,0,1,.12,1.52l-3.1,9.55a2,2,0,0,1-1,1.16A2,2,0,0,1,207.4,588.69Zm-6.61-6.22,5.33,1.73,1.88-5.77-5.34-1.73Z" transform="translate(210 -349)"/><g class="cls-4"><path class="cls-5" d="M2039,877c-26.28-17-59.33-16.41-82,1-25.37,19.48-26,51-26,55-1.67-.38-17.51-3.7-30.5,7.5-12,10.39-12,25-12,27-2-2.37-14.49-17-36-18-21.07-1-34.75,11.82-37,14-.31-2-6.34-36.43-39-50-29.92-12.43-56.42,3.4-59,5-5.42-14.12-19.56-22.31-33-20-10.65,1.83-19.55,10-23,21-16.85-11.35-38.32-12.94-56-4-23.33,11.8-28.43,36-29,39a42.61,42.61,0,0,0-80-4,49.3,49.3,0,0,0-33-1c-18.29,6-26.4,20.91-28,24-.23-1.27-4.11-20.84-21-27a30.88,30.88,0,0,0-17-1c2.62-21.53-7.83-42.25-26-52-23.61-12.66-47.38.09-49,1,4.79-18.53-.11-37.78-13-49-17.77-15.48-48.81-14-69,7-3.78-1.22-21.71-6.53-40,3a51,51,0,0,0-20,19,42.85,42.85,0,0,0-53,24c-4-5.92-34.86-50.18-92-55-44.11-3.72-87.31,17.45-113,55-3.77-1.81-47.89-22-91,3-36.59,21.25-44.81,59.06-46,65-.64-1.24-9.27-17.34-27-19a33.75,33.75,0,0,0-22,6c20.09-40.52,4.42-89-32-109-39.7-21.8-94-4.26-114,41-26.08-16.1-58.33-16.09-82,0-26.55,18-30.46,48.24-31,53-1.37-.49-14.33-4.91-26,3a29.2,29.2,0,0,0-12,29c-2.15-2.32-19.38-20.37-45-18a53.78,53.78,0,0,0-31,14,56.78,56.78,0,0,0-96-43,31.72,31.72,0,0,0-63,0,47.89,47.89,0,0,0-82,31,808,808,0,0,1,61-211" transform="translate(210 -349)"/><path class="cls-5" d="M-207.5,862.5c16.68-13.58,39.79-14,55-2,11.88,9.37,17.52,25.19,15,41,15.92-19.07,43.67-23.22,64-10,19.48,12.67,27.27,38.11,18,60,9.64-9.9,24.72-10,33-2,6.42,6.21,8.15,16.74,4,26,3.34-4.34,16.37-20.2,39-24a60.53,60.53,0,0,1,28,2,584.56,584.56,0,0,1,77-234" transform="translate(210 -349)"/></g></g></g></svg>