<svg id="visual" xmlns="http://www.w3.org/2000/svg" viewBox="0 0 1923.12 237"><defs><style>.cls-1{fill:#e5e5e5;}.cls-2{fill:#fff;stroke:#fff;stroke-miterlimit:10;}</style></defs><path class="cls-1" d="M0,164l80,16c80,16,240,48,400,68.3s320,29,480,13.4,320-55.7,480-70,320-3,400,2.6l80,5.7V401H0Z" transform="translate(2.62 -164)"/><path class="cls-2" d="M1920,400.5H0c22.46-8.88,53.87-20.62,92-32.63,51.19-16.13,90.34-25.1,133.33-34.87,33-7.49,84-19,149.34-29.5C477.4,287,556.43,282.4,636,278c65.5-3.61,114.52-6.31,181.29-5.42,127.08,1.7,229.22,15.21,339.41,29.79,68.11,9,97.64,14.56,167.3,21.22,65.3,6.25,110.12,10.46,171.11,8.94,86.85-2.16,151.63-14.17,170.67-17.88a967.14,967.14,0,0,0,152.89-42.91A950,950,0,0,0,1920,227.06Z" transform="translate(2.62 -164)"/><path class="cls-2" d="M1120,518.22" transform="translate(2.62 -164)"/></svg>