<svg id="visual" viewBox="0 0 1920 200" width="1920" height="200" xmlns="http://www.w3.org/2000/svg" xmlns:xlink="http://www.w3.org/1999/xlink" version="1.1"><path d="M0 149L64 133.8C128 118.7 256 88.3 384 72.8C512 57.3 640 56.7 768 63.2C896 69.7 1024 83.3 1152 94.3C1280 105.3 1408 113.7 1536 110.5C1664 107.3 1792 92.7 1856 85.3L1920 78L1920 201L1856 201C1792 201 1664 201 1536 201C1408 201 1280 201 1152 201C1024 201 896 201 768 201C640 201 512 201 384 201C256 201 128 201 64 201L0 201Z" fill="#6600FF" stroke-linecap="round" stroke-linejoin="miter"></path></svg>