<svg xmlns="http://www.w3.org/2000/svg" xmlns:xlink="http://www.w3.org/1999/xlink" viewBox="0 0 815.3 38.22"><defs><style>.cls-1{fill:url(#linear-gradient);}.cls-2{fill:#1f1646;}.cls-3{fill:#ededed;}</style><linearGradient id="linear-gradient" y1="19.11" x2="749.88" y2="19.11" gradientUnits="userSpaceOnUse"><stop offset="0" stop-color="#fff"/><stop offset="0.23" stop-color="#c6c4d0"/><stop offset="0.61" stop-color="#6d6787"/><stop offset="0.87" stop-color="#352d58"/><stop offset="1" stop-color="#1f1646"/></linearGradient></defs><g id="Layer_2" data-name="Layer 2"><g id="Beneficios"><path class="cls-1" d="M1.5,17.61H748.38a1.5,1.5,0,0,1,0,3H1.5a1.5,1.5,0,0,1,0-3Z"/><path class="cls-2" d="M783.81,34.35a.3.3,0,0,0,.23-.2l1.83-6.94,20.73-.06a.29.29,0,0,0,.2-.07l8.4-7.65a.3.3,0,0,0,.1-.2.29.29,0,0,0-.09-.21l-8.34-8.28a.28.28,0,0,0-.2-.08l-20.65,0L784.16,4.2a.27.27,0,0,0-.22-.2L762.46,0a.29.29,0,0,0-.32.19.3.3,0,0,0,0,.1.28.28,0,0,0,.16.25L774.86,7V10.8l-5.19-.07a.25.25,0,0,0-.21.08.28.28,0,0,0-.08.2l0,5.67a5.85,5.85,0,0,0-2.63-.58A6.36,6.36,0,0,0,761.81,19a.42.42,0,0,0,0,.15h0v0a.36.36,0,0,0,0,.11l0,0a6.24,6.24,0,0,0,4.82,2.83,5.86,5.86,0,0,0,2.67-.57l0,5.49a.29.29,0,0,0,.29.29l5.19,0-.07,3.92-12.51,6.39a.3.3,0,0,0-.15.29.43.43,0,0,0,0,.05.28.28,0,0,0,.32.19Z"/><circle class="cls-3" cx="799.91" cy="19.26" r="3.8"/><rect class="cls-3" x="784.75" y="16.92" width="1.38" height="4.55" transform="translate(807.33 -766.18) rotate(90.2)"/><rect class="cls-3" x="779.92" y="18.44" width="1.38" height="1.44" transform="translate(802.46 -761.38) rotate(90.2)"/></g></g></svg>