<svg xmlns="http://www.w3.org/2000/svg" xmlns:xlink="http://www.w3.org/1999/xlink" viewBox="0 0 815.3 38.22"><defs><style>.cls-1{fill:url(#linear-gradient);}.cls-2{fill:#1f1646;}.cls-3{fill:#ededed;}</style><linearGradient id="linear-gradient" x1="65.42" y1="19.11" x2="815.3" y2="19.11" gradientUnits="userSpaceOnUse"><stop offset="0" stop-color="#1f1646"/><stop offset="1" stop-color="#ededed"/></linearGradient></defs><g id="Layer_2" data-name="Layer 2"><g id="Que_Necesitas" data-name="Que Necesitas"><path class="cls-1" d="M813.8,20.61H66.92a1.5,1.5,0,0,1,0-3H813.8a1.5,1.5,0,0,1,0,3Z"/><path class="cls-2" d="M31.49,3.86a.31.31,0,0,0-.23.21L29.42,11l-20.73.06a.26.26,0,0,0-.19.07L.09,18.78A.33.33,0,0,0,0,19a.34.34,0,0,0,.08.21l8.34,8.28a.3.3,0,0,0,.2.08l20.66,0L31.13,34a.3.3,0,0,0,.23.2l21.48,4a.28.28,0,0,0,.32-.19.25.25,0,0,0,0-.09.26.26,0,0,0-.15-.25L40.43,31.27l0-3.86,5.19.08a.3.3,0,0,0,.2-.08.27.27,0,0,0,.09-.2l0-5.67a5.85,5.85,0,0,0,2.63.58,6.36,6.36,0,0,0,4.9-2.88.28.28,0,0,0,0-.15h0v0a.2.2,0,0,0,0-.11l0-.05a6.31,6.31,0,0,0-4.83-2.82,5.92,5.92,0,0,0-2.67.57l0-5.49a.29.29,0,0,0-.28-.29l-5.19,0,.07-3.92L53.08.54a.29.29,0,0,0,.16-.29s0,0,0-.06A.29.29,0,0,0,52.9,0Z"/><circle class="cls-3" cx="15.38" cy="18.96" r="3.8"/><rect class="cls-3" x="29.17" y="16.75" width="1.38" height="4.55" transform="translate(10.73 48.82) rotate(-89.8)"/><rect class="cls-3" x="33.99" y="18.33" width="1.38" height="1.44" transform="translate(15.51 53.67) rotate(-89.8)"/></g></g></svg>